<?xml version="1.0" encoding="UTF-8"?>
<svg id="Layer_2" data-name="Layer 2" xmlns="http://www.w3.org/2000/svg" viewBox="0 0 299.03 57.47">
  <defs>
    <style>
      .cls-1 {
        fill: #f9f5ed;
      }
    </style>
  </defs>
  <g id="Layer_1-2" data-name="Layer 1">
    <g>
      <path class="cls-1" d="M23.23.27c3.39-.23,6.86.45,10.25,1.57.66.21,1.31.45,1.93.75,3.43,1.68,4.84,4.68,3.88,8.38-.28,1.08-.69,2.15-1.2,3.14-1.42,2.76-4.69,3.03-6.54.57-.73-.97-1.3-2.04-2.01-3.03-3.04-4.23-7.17-5.81-12.24-4.88-3.65.67-4.93,4.51-2.51,7.36,1.26,1.48,2.88,2.49,4.63,3.27,3.32,1.48,6.67,2.88,9.98,4.37,4.05,1.81,7.4,4.45,9.55,8.42,1.9,3.51,2.16,7.33,1.34,11.12-1.63,7.53-6.06,12.67-13.56,14.93-7.76,2.13-15.43,1.17-22.7-2.23-3.07-1.44-4.41-4.09-3.94-7.47.25-1.79.72-3.56,1.21-5.3.4-1.42,1.24-2.43,2.89-2.55,1.71-.12,3.09.29,3.86,1.96,1.22,2.64,2.98,4.86,5.15,6.76,2.96,2.6,6.38,3.76,10.3,3.2,3.04-.43,4.7-2.35,4.67-5.25-.01-1.09-.34-2.02-1.07-2.84-1.12-1.23-2.36-2.27-3.89-2.97-4.33-1.97-8.64-3.99-12.98-5.95C3.91,30.75-.02,24.12.74,16.9c.67-6.32,3.86-11.16,9.75-14.03C14.47.95,18.6-.05,23.23.27Z"/>
      <path class="cls-1" d="M91.69,30.89c0,4.67-.05,9.23.03,13.9.02,1.36.43,2.71.68,4.06.11.59.34,1.17.39,1.76.19,2.49-.92,3.95-3.36,4.44-.67.13-1.38.17-2.07.17-3.12.02-6.23,0-9.35,0-.61,0-1.22-.02-1.81-.11-2.61-.43-3.89-2.26-3.43-4.84.05-.26.11-.51.2-.75,1.05-3.17,1.14-6.45,1.1-9.75-.06-6.15,0-11.55-.05-17.7-.02-2.42-.1-4.84-.27-7.25-.14-2.08-2.82-4.66-4.89-4.8-1.6-.11-2.86.6-3.78,1.87-.94,1.3-1.4,2.77-1.4,4.38,0,3.03,0,6.06-.01,9.09,0,6.41,0,12.07,0,18.48,0,1.74.2,3.41.84,5.07,1.35,3.51-.54,6.22-4.36,6.31-3.55.08-7.1.04-10.65,0-.86,0-1.73-.14-2.57-.34-2.54-.6-3.77-2.62-2.58-4.86,1.54-2.9,1.69-5.94,1.68-9.07-.01-7.88-.02-15.01.01-22.88.01-2.56-.29-4.98-1.77-7.19-.46-.68-.68-1.6-.75-2.44-.15-1.92.8-3.39,2.67-3.95,3.48-1.04,6.98-2.06,10.52-2.84,1.37-.3,2.96-.17,4.34.18,3.14.8,6,.6,9.1-.59,5.51-2.1,10.9-1.39,15.76,2.13,3.1,2.25,4.91,2.24,7.91,0,1.94-1.45,3.96-2.85,6.62-2.37.16.03.37.04.5-.04,3.26-1.97,6.31-.52,9.39.56,6.09,2.14,8.15,7.07,8.89,12.87.23,1.79.11,3.62.9,5.34.22.47.16,1.29-.12,1.72-.68,1.04-.65,2.13-.62,3.25.06,2.5.25,4.37.24,6.87,0,2.76-.23,5.41-.24,8.17,0,1.72.2,3.45.3,5.18.08,1.4.48,2.68,1.11,3.96,1.71,3.46-.06,6.27-3.95,6.33-3.64.05-7.27.05-10.91,0-3.98-.06-5.69-2.54-4.68-6.4.46-1.74.76-3.57.78-5.36.05-5.19-.06-10.27-.14-15.46-.06-3.98-.16-7.32-.22-11.3-.02-1.59-.31-3.1-1.2-4.45-1.33-2.03-4.02-2.84-6.16-1.76-.58.29-1.29.85-1.42,1.41-.41,1.69-1.32,3.21-1.27,5.07.11,4.84.04,9.07.04,13.92h.02Z"/>
      <path class="cls-1" d="M179.85,52.4c-1.75,1.76-3.69,3.33-6.19,3.97-5.13,1.31-9.71.38-13.54-3.44-.37-.37-.73-.75-1.12-1.1-1.92-1.76-4.25-1.77-6.05.14-1.99,2.11-4.39,3.63-7.09,4.35-6.19,1.64-12.51.63-16.84-4.83-1.69-2.13-2.59-4.64-2.79-7.41-.2-2.78.16-5.49,1.05-8.09.83-2.45,2.38-4.49,4.37-6.16.85-.71,1.76-1.35,2.7-1.93,1.85-1.13,2.57-3.23,1.66-5.24-.4-.89-.88-1.75-1.32-2.63-1.48-2.94-2.22-6.07-1.5-9.31.97-4.34,3.13-7.8,7.64-9.4,2.82-1,5.67-1.51,8.37-1.24,3.03-.19,5.77-.14,8.38.93.24.1.49.17.74.27,2.93,1.22,3.77,3.46,2.96,6.58-.26,1-.77,1.94-1.25,2.87-.5.97-1.26,1.74-2.46,1.62-1.14-.11-1.87-.86-2.25-1.92-.29-.8-.5-1.63-.84-2.4-1-2.27-2.66-3.86-5.07-4.53-2.49-.69-5.06,1.25-5.15,3.86-.05,1.43.39,2.74,1.15,3.89,1.19,1.8,2.45,3.55,3.78,5.24,4.76,6.06,9.56,12.09,14.37,18.1,2.49,3.11,5.02,6.19,7.6,9.22,1.62,1.91,3.68,3.08,6.25,3.28.69.05,1.46.19,2.03.56,1.65,1.07,1.89,3.28.42,4.76ZM152.18,45c0-1.2-.43-2.14-1.14-3.03-1.98-2.5-3.95-5.02-5.95-7.51-.81-1.02-1.66-2.01-2.51-2.99-.89-1.03-2.07-1.06-3.24-.72-1.15.34-1.53,1.35-1.67,2.43-.09.71-.1,1.43-.14,2.15.01,0,.02,0,.04,0,0,.39-.02.78,0,1.17.27,4.07,1.89,7.41,5.29,9.78,2.09,1.46,4.42,1.92,6.89,1.52,1.6-.26,2.42-1.19,2.42-2.8Z"/>
      <path class="cls-1" d="M222.63,42.74c-.14.68-.24,1.38-.5,2.01-1.99,4.72-5.21,8.3-9.77,10.68-2.9,1.52-6.06,1.86-9.25,1.97-5.86.19-11.02-1.52-15.42-5.41-4.9-4.34-7.32-9.96-8.33-16.3-.84-5.3-.53-10.5.91-15.67,1.18-4.25,3.21-7.94,6.14-11.26.64-.73,1.38-1.36,2.14-1.95.79-.62,1.55-1.26,2.38-1.82,5.45-3.72,8.21-4.52,14.27-4.78,11.63.86,17.12,4.74,17.12,9.17.07,3.31.11,13.13-5.41,13.13-3.56,0-6.54-8.04-10.53-12.39-3.02-4.55-8.4-3.07-10.73,2.26-.15.34-.37.76-.59,1.2.05.05-.69,1.62-.96,2.43-2.42,7.1-1.51,13.87,2.56,20.11,3.22,4.93,8.1,6.97,13.83,6.56,2.07-.15,4.07-1.31,6.08-2.08.63-.24,1.16-.77,1.78-1.06,1.08-.51,2.2-.56,3.19.22.96.75,1.37,1.76,1.11,2.99Z"/>
      <path class="cls-1" d="M252.85,57.47c-2.75,0-5.06-.07-7.57-.65-8.76-2.02-14.64-7.51-18.05-15.7-2.94-7.08-2.93-14.41-.92-21.65,2.27-8.16,7.62-13.89,15.35-17.23,4.53-1.95,9.39-2.32,14.28-1.75,3.28.38,6.49,1.09,9.41,2.75,6.45,3.66,10.98,8.86,13,16.1,1.42,5.08,1.71,10.22,1.01,15.43-.14,1.02-.45,2.02-.68,3.03-.26,1.18-.52,2.36-.77,3.54-.07.33-.02.76-.22.99-2.3,2.68-3.8,5.95-6.51,8.35-2.5,2.21-5.2,3.97-8.3,5.2-3.2,1.27-6.6,1.59-10.06,1.59ZM261.64,29.03c-.42-4.17-.71-8.57-1.36-12.92-.41-2.73-1.35-5.35-3.47-7.39-2.59-2.49-6.17-2.51-8.8-.03-2.14,2.02-3.13,4.64-3.48,7.38-.59,4.62-.84,9.29-1.1,13.94-.09,1.63.33,3.27.32,4.91,0,2.97.51,5.86,1.21,8.72.59,2.37,1.53,4.58,3.51,6.22,2.25,1.85,5.65,1.85,7.88-.01,2.33-1.95,3.48-4.6,3.92-7.42.67-4.35.92-8.76,1.37-13.39Z"/>
      <path class="cls-1" d="M289.75,57.35c-4.54.6-9.31-4.19-8.97-9.62.29-4.57,3.9-8.37,8.6-8.46,6.32-.12,9.41,4.37,9.64,8.83.28,5.54-4.48,9.65-9.27,9.26Z"/>
    </g>
  </g>
</svg>