<?xml version="1.0" encoding="UTF-8"?>
<svg id="Layer_2" data-name="Layer 2" xmlns="http://www.w3.org/2000/svg" viewBox="0 0 860.05 345.99">
  <defs>
    <style>
      .cls-1 {
        fill: #f9f5ed;
      }
    </style>
  </defs>
  <g id="Layer_1-2" data-name="Layer 1">
    <g>
      <g>
        <path class="cls-1" d="M162.81,330.6l9.79-13.59h5.8v28.62h-5.76v-19.15l-8.73,12.33h-2.54l-8.77-12.45v19.26h-5.76v-28.62h6.27l9.71,13.59Z"/>
        <path class="cls-1" d="M208.12,339.18h-11.43l-1.88,6.46h-6.31l8.73-28.62h10.22l8.77,28.62h-6.19l-1.92-6.46ZM198.18,334.05h8.49l-3.56-11.86h-1.33l-3.6,11.86Z"/>
        <path class="cls-1" d="M226.34,345.64v-28.62h9.52c9.83,0,16.33,5.72,16.33,15.86,0,8.85-6.5,12.76-14.25,12.76h-11.59ZM232.37,340.27h5.09c5.05,0,8.65-2.12,8.65-7.99,0-6.54-5.29-9.83-10.92-9.83h-2.82v17.82Z"/>
        <path class="cls-1" d="M284.49,345.64h-21.38v-28.62h21.69l-.59,5.68h-15.04v4.19h11.94l-.63,5.44h-11.32v7.72h15.9l-.59,5.6Z"/>
        <path class="cls-1" d="M322.91,317.02v28.62h-6.15v-28.62h6.15Z"/>
        <path class="cls-1" d="M360.58,317.02v28.62h-4.35l-14.96-17.89v17.89h-5.95v-28.62h4.58l14.68,18.01v-18.01h5.99Z"/>
        <path class="cls-1" d="M409.93,330.6l9.79-13.59h5.8v28.62h-5.76v-19.15l-8.73,12.33h-2.54l-8.77-12.45v19.26h-5.76v-28.62h6.27l9.71,13.59Z"/>
        <path class="cls-1" d="M444.12,317.02v28.62h-6.15v-28.62h6.15Z"/>
        <path class="cls-1" d="M460.1,335.69c1.02,3.01,4.27,4.74,7.13,4.74,4.11,0,7.52-1.18,7.52-4.07,0-2.35-5.4-2.82-7.01-3.06-2-.31-3.88-.71-6.46-1.72-2.98-1.18-4.89-3.45-4.89-7.09,0-6.5,7.08-8.22,11.86-8.22,5.95,0,11.43,1.84,12.69,6.58l-5.64,3.33c-.67-2.86-3.84-4.46-6.7-4.46-2.27,0-5.99.39-5.99,2.94,0,2.12,5.09,2.74,7.09,3.13,5.37,1.06,11.28,2.15,11.28,8.81s-7.68,9.4-13.04,9.4c-7.83,0-12.22-3.33-13.39-7.12l5.56-3.17Z"/>
        <path class="cls-1" d="M495.43,335.69c1.02,3.01,4.27,4.74,7.13,4.74,4.11,0,7.52-1.18,7.52-4.07,0-2.35-5.4-2.82-7.01-3.06-2-.31-3.88-.71-6.46-1.72-2.98-1.18-4.89-3.45-4.89-7.09,0-6.5,7.08-8.22,11.86-8.22,5.95,0,11.43,1.84,12.69,6.58l-5.64,3.33c-.67-2.86-3.84-4.46-6.7-4.46-2.27,0-5.99.39-5.99,2.94,0,2.12,5.09,2.74,7.09,3.13,5.37,1.06,11.28,2.15,11.28,8.81s-7.68,9.4-13.04,9.4c-7.83,0-12.22-3.33-13.39-7.12l5.56-3.17Z"/>
        <path class="cls-1" d="M533.34,317.02v28.62h-6.15v-28.62h6.15Z"/>
        <path class="cls-1" d="M549.32,335.69c1.02,3.01,4.27,4.74,7.13,4.74,4.11,0,7.52-1.18,7.52-4.07,0-2.35-5.4-2.82-7.01-3.06-2-.31-3.88-.71-6.46-1.72-2.98-1.18-4.89-3.45-4.89-7.09,0-6.5,7.08-8.22,11.86-8.22,5.95,0,11.43,1.84,12.69,6.58l-5.64,3.33c-.67-2.86-3.84-4.46-6.7-4.46-2.27,0-5.99.39-5.99,2.94,0,2.12,5.09,2.74,7.09,3.13,5.37,1.06,11.28,2.15,11.28,8.81s-7.68,9.4-13.04,9.4c-7.83,0-12.22-3.33-13.39-7.12l5.56-3.17Z"/>
        <path class="cls-1" d="M584.64,335.69c1.02,3.01,4.27,4.74,7.13,4.74,4.11,0,7.52-1.18,7.52-4.07,0-2.35-5.4-2.82-7.01-3.06-2-.31-3.88-.71-6.46-1.72-2.98-1.18-4.89-3.45-4.89-7.09,0-6.5,7.08-8.22,11.86-8.22,5.95,0,11.43,1.84,12.69,6.58l-5.64,3.33c-.67-2.86-3.84-4.46-6.7-4.46-2.27,0-5.99.39-5.99,2.94,0,2.12,5.09,2.74,7.09,3.13,5.37,1.06,11.28,2.15,11.28,8.81s-7.68,9.4-13.04,9.4c-7.83,0-12.22-3.33-13.39-7.12l5.56-3.17Z"/>
        <path class="cls-1" d="M622.55,317.02v28.62h-6.15v-28.62h6.15Z"/>
        <path class="cls-1" d="M641,336.08v9.55h-6.03v-28.62h12.1c7.28,0,12.37,2.23,12.37,9.4s-5.41,9.67-12.37,9.67h-6.07ZM641,322.42v8.3h7.05c3.45,0,5.48-1.25,5.48-4.34,0-2.55-2.04-3.96-5.48-3.96h-7.05Z"/>
        <path class="cls-1" d="M676.28,336.08v9.55h-6.03v-28.62h12.1c7.28,0,12.37,2.23,12.37,9.4s-5.41,9.67-12.37,9.67h-6.07ZM676.28,322.42v8.3h7.05c3.45,0,5.48-1.25,5.48-4.34,0-2.55-2.04-3.96-5.48-3.96h-7.05Z"/>
        <path class="cls-1" d="M711.69,317.02v28.62h-6.15v-28.62h6.15Z"/>
      </g>
      <g>
        <g>
          <path class="cls-1" d="M713.68,261.24c-.8.24-1.59.37-2.34.39-1.24-.05-2.2-.14-3.07-.3-.64-.12-1.27-.31-1.88-.51-.38-.12-.76-.24-1.14-.34-.55-.14-1.1-.25-1.64-.35-.5-.09-1-.19-1.47-.31l-.87-.24c-.78-.22-1.51-.43-2.26-.53l-.66-.1c-.8-.12-1.62-.24-2.36-.53-1.18-.45-1.96-1-2.38-1.68-.18-.35-.31-.79-.46-1.26-.11-.34-.21-.69-.35-1.02l-.27-.67c-.22-.54-.45-1.07-.59-1.6-.13-.47-.27-1.03-.37-1.58.57.68,1.22,1.23,1.81,1.73.68.57,1.62,1.28,2.82,1.67.86.28,1.78.38,2.75.48l.69.08c.94.1,1.92.21,2.93.2.35,0,.7,0,1.05,0,.71.01,1.43.02,2.14-.04.64-.06,1.26-.21,1.85-.35.42-.1.85-.2,1.27-.26,1.01-.16,1.98-.35,2.9-.54l.2-.04c.49-.1.97-.18,1.42-.25.6-.1,1.17-.2,1.67-.32.37-.09.72-.19,1.03-.28.65-.2,1.17-.39,1.54-.52.19-.07.33-.12.43-.15.87-.27,1.65-.73,2.3-1.14.26-.16.52-.32.79-.47.39-.22.77-.45,1.13-.7.16.36.33.69.5,1,.14.27.29.54.4.79l.06.15c.24.59.45,1.1.2,1.61-.67,1.21-1.53,2.42-2.22,3.15l-.22.23.04.09c-.57.56-1.23,1.19-1.94,1.72-.45.34-.99.6-1.55.87-.34.16-.67.32-.99.5l-.43.24c-.72.41-1.4.8-2.11,1.04l-.39.12Z"/>
          <path class="cls-1" d="M754.72,264.2c-.89.26-1.74.5-2.59.57-.81.07-1.69.06-2.68-.03-1.04-.09-1.91-.22-2.66-.41-.81-.21-1.62-.48-2.47-.84-.84-.36-1.64-.74-2.39-1.14l-.39-.21c-.66-.36-1.32-.71-1.97-1.08l-.33-.19c-.67-.39-1.35-.77-2.04-1.13-.82-.42-1.62-.84-2.48-1.16-.44-.15-1.24-.62-2.18-1.5-.5-.47-1.25-1.19-1.97-2.02-.35-.41-.66-.88-.98-1.39-.21-.32-.41-.65-.64-.96-.59-.82-1.13-1.57-1.56-2.35-.55-.98-1-1.77-1.22-2.5-.47-1.17-.81-2.16-.2-2.89.26-.34.54-.65.82-.95.26-.28.51-.56.75-.86.51-.63.99-1.29,1.44-1.96.48-.7.82-1.49,1.14-2.23.19-.41.35-.84.52-1.27.19-.5.39-1.01.63-1.5.19-.36.43-.71.66-1.06.39-.59.8-1.19,1.07-1.91.27-.61.43-1.25.58-1.86l.08-.32c.18-.72.35-1.44.49-2.22.07-.47.31-.87.65-1.08.24-.14.47-.25.67-.31.26-.08.47-.08.63,0,.61.36,1.14.75,1.59,1.19l.23.23c.45.45.91.92,1.55,1.21.79.41,1.72.66,2.75.72,1.07.06,1.98-.01,2.79-.23h.02c.99-.3,1.78-.74,2.5-1.17.6-.33,1.21-.77,1.89-1.37.61-.53,1.13-1.1,1.61-1.74.49-.66.89-1.36,1.2-2.08.06-.11.12-.29.19-.49.1-.29.26-.78.44-.83.62.32,1.35.77,2.15,1.27l.34.21c.63.39,1.26.78,1.85,1.23.71.53,1.39,1.1,2.03,1.69.46.42.87.89,1.28,1.36l.76.85c.52.57,1.04,1.13,1.49,1.74.45.6.85,1.27,1.23,1.91l.2.34c.45.75.87,1.55,1.24,2.35l.23.49c.3.63.61,1.29.82,1.95.22.67.35,1.39.48,2.09l.09.51c.19,1,.3,1.83.35,2.63.1,1.04.13,1.91.12,2.73,0,.69-.09,1.37-.19,2.09l-.07.59c-.1.83-.21,1.76-.42,2.65l-.15.68c-.14.64-.29,1.31-.51,1.92-.29.78-.71,1.54-1.11,2.27-.46.84-.98,1.51-1.56,2.24-.37.5-.93.74-1.56.99l-.47.17c-.54.19-1.1.39-1.58.72-.43.34-.68.73-.92,1.1-.22.35-.43.68-.76.94-.16.14-.3.21-.51.31-.16.08-.35.18-.6.32-.61.38-1.33.68-2.25.96l-.16.05Z"/>
          <path class="cls-1" d="M688.09,232.34c-.78.04-1.62.07-2.6-.07-.84-.12-1.67-.26-2.5-.63-.81-.37-1.74-.97-2.67-1.73-.64-.52-1.59-1.32-2.43-2.18-.86-.88-1.6-1.7-2.2-2.42-1-1.22-1.65-2.25-1.88-2.64-.4-.77-.52-1.79-.62-2.78l-.09-.76c-.16-.8-.32-1.68-.26-2.47.06-.66.34-1.34.89-2.17.5-.72,1.09-1.11,1.66-1.44.31-.18.62-.39.95-.62.4-.27.82-.57,1.3-.83.57-.31,1.21-.59,1.88-.88l.53-.23c.56-.24,1.15-.44,1.77-.63l1.15-.33c.69-.2,1.4-.41,2.13-.49,1.1-.04,2.22-.1,3.31-.39l.41-.11c1.01-.3,1.94-.75,2.72-1.14.03-.01.09-.04.16-.06.14-.04.22-.04.24-.04-.11.93,0,1.82.29,2.67l.12.36c.24.75.49,1.53.93,2.25.31.51.7.97,1.07,1.42.21.25.42.51.62.77.25.33.51.66.77.99.3.38.6.76.89,1.16l.13.16c.3.37.64.79.6,1.05-.02.17-.22.32-.37.43-.77.52-1.46,1.08-2.09,1.7l-.49.47c-.48.46-.98.93-1.38,1.49-.58.83-1.04,1.58-1.41,2.31-.44.86-.81,1.77-1.08,2.46-.41.96-.58,1.62-.71,2.14-.1.4-.18.71-.34,1.03-.21.33-.4.77-.59,1.21-.12.29-.24.58-.38.83l-.19.11h-.23Z"/>
          <path class="cls-1" d="M717.11,249.9c-.73.21-1.56.43-2.45.65-.45.11-.94.17-1.43.23-.47.06-.95.12-1.43.22-.92.19-1.87.36-2.84.52-.4.07-.79.15-1.19.24-.55.12-1.1.24-1.65.3-.97.1-1.94.18-2.87.2-.67.02-1.34-.08-1.99-.17-.29-.04-.58-.08-.86-.11-1.03-.11-1.94-.31-2.72-.61-.96-.35-1.86-.72-2.36-1.35-.45-.56-.77-1.27-1.1-2.02l-.32-.7c-.46-.98-.78-2.02-1.04-2.9-.12-.4-.26-.79-.4-1.19-.23-.62-.44-1.21-.54-1.8-.19-1.15-.31-2.2-.35-3.12-.04-.86.07-1.68.18-2.4l.09-.68c.09-.92.44-1.77.79-2.58.13-.31.29-.62.44-.92.28-.55.57-1.12.74-1.75.12-.36.21-.78.3-1.2.1-.5.2-.97.38-1.39.24-.55.58-1.08.9-1.59.15-.23.3-.47.44-.7.4-.66.9-1.31,1.58-2.03l.38-.41c.48-.53.93-1.02,1.49-1.33.14-.04.27.13.56.76.11.24.22.49.37.68.49.91,1.09,1.73,1.74,2.38.52.51,1.15.82,1.76,1.13.26.13.52.25.77.4.2.12.4.24.59.36.61.38,1.25.77,1.97.99,1.96,2.33,9.17,3.61,9.82,4.04,1.16.47,2.26.73,3.33.82,1.08.09,2.19.05,3.29-.11.41-.06.8-.16,1.19-.28.48-.14.94-.32,1.4-.49l1.02-.37c.92-.33,1.78-.63,2.51-1.08.34-.2.6-.33.78-.4-.02.16-.06.42-.17.87-.15.82-.52,1.57-.89,2.25-.18.32-.38.63-.59.93-.27.4-.54.8-.75,1.23-.15.37-.27.79-.4,1.26-.1.36-.21.75-.34,1.14-.19.58-.5,1.13-.81,1.66l-.24.43c-.22.33-.44.72-.66,1.12-.22.4-.45.81-.71,1.2-.3.44-.64.85-.98,1.27-.23.28-.46.56-.68.85-.57.74-1.2,1.43-1.74,2-.23.24-.44.5-.65.75-.37.45-.72.87-1.14,1.19-.71.54-1.46.98-2.24,1.31l-.3.13v.16Z"/>
          <path class="cls-1" d="M768.52,184.79c-1.34-.14-4.04-.95-5.76-.54-.64.15-1.29-.15-1.47-.78-.43-1.52-1.1-3.52-1.13-4-.06-.78-.28-1.57-.49-2.34l-.17-.62c-.25-.93-.53-1.92-1-2.83-.45-.86-1.02-1.69-1.72-2.48-.3-.37-.6-.8-.93-1.26-.31-.43-.63-.89-.99-1.35-.3-.38-.66-.74-1.03-1.11-.4-.4-.82-.81-1.18-1.27-.66-.84-1.34-1.69-2.03-2.52l-.3-.37c-.6-.73-1.18-1.44-1.77-2.1l-.31-.34c-.53-.59-1.07-1.19-1.64-1.73-.63-.6-1.37-1.27-2.09-1.65-.97-.36-1.9-.51-2.84-.45-.89.05-1.83.26-2.95.56-.21.06-.42.11-.63.18-.76.23-1.51.5-2.26.8-.32.13-.65.25-.98.37-.64.24-1.28.47-1.87.77-.86.44-1.66.93-2.37,1.36l-.26.16c-.48.34-.91.85-1.35,1.39-.16.2-.33.4-.5.59-.58.66-1.11,1.41-1.66,2.19-.22.32-.46.62-.69.93-.33.43-.67.86-.95,1.33l-.49.8c-.33.54-.66,1.07-.96,1.6-.3.52-.46,1.12-.63,1.76l-.12.45c-.2.71-.28,1.42-.34,2.11.67-.15,1.32-.17,1.95-.19.28,0,.55-.02.81-.04,1.25-.1,2.3-.02,3.3.24,1.21.32,2.18.76,3.03,1.39.85.63,1.74,1.35,2.42,2.33.48.7.77,1.51,1.07,2.36l.23.64c.08.15.24.28.41.42.11.09.22.18.31.28.75.75,1.54,1.77,2.29,2.76.25.33.53.66.82.99.48.55.97,1.12,1.42,1.8.08.11.15.25.22.39.06.12.18.35.24.37.1-.03.24-.19.28-.23.53-.66,1.07-1.25,1.66-1.83.56-.55,1.19-1.11,2-1.53l.57-.32c.65-.36,1.33-.74,2.07-1.03.27-.1.54-.2.82-.28.68-.2,1.38-.35,2.06-.5,1.03-.22,2.07-.18,2.99-.16,1.01.04,1.96.25,2.94.67,1.13.55,3.08,3.63,4.03,5.39-.63,3.19-.84,6.33-2.33,9.19-.84,1.31-2.38,2.17-3.03,3.63-.91,2.59-1.08,5.44-2.42,7.9-1.34,2.8-.3,6.03.94,8.64.81,1.25,2.22,2.01,3.48,2.89,1.39.92,2.79,1.84,4.09,2.87,1.31.87,2.64,2.83,4.07,3.18l.25.02c3.02-.47,5.67-2.23,8.09-4.14,3.7-2.52,7.26-5.45,8.97-9.71,4.59-11.13-2.31-25.23-14.19-28.03Z"/>
          <path class="cls-1" d="M714.79,190.62c-.08,0-.19-.04-.27-.06-.11-.03-.22-.06-.32-.07-1.68-.25-3.02,0-3.85.25-.13.04-.26.08-.37.12-.38.18-.76.34-1.15.51-.41.18-.84.36-1.26.56-.48.23-.97.41-1.42.55-.32.1-.63.17-.91.22-.82.03-1.81.2-2.95.53h0c-1.22.37-2.11.81-2.79,1.36-.05.03-.1.06-.15.07-.46-.21-1.22-.7-1.82-1.61-.32-.49-.55-1.12-.8-1.79l-.27-.7c-.29-.75-.62-1.64-.85-2.59-.2-.84-.3-1.72-.41-2.7l-.05-.46c-.08-.74-.17-1.51-.15-2.26.02-.69.15-1.37.29-2.09l.12-.6c.05-.29.09-.59.14-.89.09-.63.17-1.23.38-1.78.22-.58.6-1.1,1-1.64.15-.21.3-.42.45-.63.08-.11.18-.27.27-.42.12-.2.33-.52.42-.59.19-.15.85-.47,1.88-.78.19-.06,1.27-.35,1.27-.35.63-.17,1.33-.37,2.08-.48.91-.13,1.94-.2,2.82-.24.54-.02,1.1.04,1.7.11.36.04.73.08,1.1.11l.4.02c.78.05,1.59.09,2.38.25l.54.1c.73.13,1.48.27,2.18.52.67.24,1.29.6,1.95.99l.51.3c1.03.53,2.04,1.05,2.99,1.75.14.1.16.15.16.15-.74.68-1.39,1.51-1.92,2.21l-.15.2c-.55.74-1.13,1.5-1.54,2.35-.42.85-.78,1.81-1.07,2.88-.24.85-.32,1.76-.4,2.64l-.04.39c-.08.88-.1,1.84-.04,3.03.02.4-.04.57-.06.6h0Z"/>
          <path class="cls-1" d="M744.39,227.49c-.8.24-2.21-.41-3.01-.49-1.07-.16-2.29-.9-2.94-1.77.14-.06.38-.14.54-.18,0,0,.38-.12.38-.12,1.22-.37,2.17-.87,2.96-1.32.95-.54,1.94-1.14,2.66-1.95.77-.87,1.14-1.89,1.42-2.86.3-1.02.54-2.02.32-3.09-.14-.92-.68-1.91-1.53-2.84-.89-.96-1.84-1.58-2.82-1.85-.2-.04-.19-.35-.08-.48l.29-.31c.83-.81,1.93-2.07,2.31-3.41.25-.78.33-1.82.22-2.92-.08-.83-.38-1.64-.67-2.43l-.1-.28c-.3-.82-.82-1.5-1.27-2.1l-.21-.28c-.48-.63-.56-1.49-.57-2.17,0-1.28.1-2.36.32-3.59.21-.53.64-1.02,1.13-1.58.23-.26.46-.52.68-.81.29-.32.57-.68.85-1.04.57-.74,1.1-1.44,1.94-1.87.72-.4,1.57-.77,2.62-1.16l.41-.15c.49-.18.98-.37,1.48-.52.28-.08.55-.16.83-.21.73-.14,1.52-.11,2.28-.07l2.31,2.36c.12.74.25,1.58.31,2.44.08,1.12.15,2.11-.05,2.97-.23,1-.74,1.74-1.56,2.26-.74.41-1.61,1.04-2.43,1.76-.54.48-1.01,1.04-1.51,1.64l-.46.54c-.73.85-1.28,1.59-1.74,2.33-.47.75-.79,1.57-1.1,2.36l-.09.23c-.31.8-.52,1.64-.67,2.72-.16,1,.83,4.54,1.06,5.51.11.44.2.89.29,1.34.1.47.19.94.31,1.4.13.52.24,1.94.29,2.47.03.27.06.55.09.82s.09.54.15.81c.61,2.04-.73,4.29-.73,4.29-.46.7-1.16,1.36-1.81,1.93-.71.62-1.61,1.16-2.61,1.54-.16.06-.33.12-.49.17Z"/>
          <path class="cls-1" d="M719.86,222.85c-.31.07-1.46.31-2.96.67-.89.21-1.93.39-3.02.56-1.03.15-2.11.2-3.04.23-.28,0-.56.03-.84.04-.77.05-1.51.09-2.16-.03-1.05-.19-1.95-.6-2.58-1.16-.69-.54-1.29-1.23-1.84-2.14-.52-.86-1.05-1.71-1.62-2.51-.21-.33-.43-.68-.64-1.03-.56-.9-1.13-1.82-1.84-2.71-.27-.37-.62-.77-1-1.2-.38-.44-.79-.91-1.17-1.41-.65-.87-1.13-1.89-1.56-2.79-.55-1.16-.96-2.24-.51-2.95.26-.48.57-.98.9-1.51.25-.41.52-.83.78-1.28.24-.41.48-.84.72-1.28.29-.52.58-1.04.88-1.54.31-.52.66-1,.98-1.45.3-.42.59-.83.83-1.22.39-.63.93-1.16,1.7-1.67.66-.45,1.23-.82,1.86-1.01.1-.03.21-.06.32-.08.29-.04.59-.06.9-.08.56-.03,1.13-.07,1.72-.23.35-.08.69-.18,1.03-.28.67-.2,1.28-.43,1.81-.68l.91-.43c.68-.33,1.24-.6,1.69-.77.88-.12,2.33-.01,3.52.28.45.1.7.35.87.87.35.99.96,2.19,1.64,3.23.48.74,1.06,1.44,1.58,2.06.21.25.42.5.6.73.22.3.43.64.64.98.26.43.53.86.83,1.25.29.38.6.74.92,1.11.27.32.54.63.8.96.29.37.56.75.84,1.13.24.34.49.68.74,1.01.17.26.43.48.66.67.44.36.67.57.65,1.08-.01.33-.45.56-1.11.87-.58.27-1.25.58-1.58,1.15-.62,1.44-.74,2.48-.39,3.42.4,1.09,1.29,1.84,2.08,2.5.42.36.78.63,1.11.88.46.35,1.09.83,1.16,1.02-.1.16-1.06.73-1.76,1.14l-.57.34c-.32.19-.66.4-1,.62-.56.35-1.14.72-1.72,1.03-.95.51-1.81,1.05-2.49,1.46l-.22.14Z"/>
          <path class="cls-1" d="M739.18,195.46c0-.5.02-.99,0-1.48-.08-1.52-.28-2.72-.59-3.72-.25-.53-.62-1.06-1.02-1.63-.18-.26-.36-.51-.54-.78-.18-.28-.36-.57-.54-.86-.33-.54-.66-1.07-1.04-1.56-.61-.77-1.25-1.48-1.85-2.15-1-.92-1.77-2.02-2.35-3.43-.31-.69-.63-1.41-1.14-1.93-.5-.51-1.16-1.13-1.94-1.39-.91-.34-1.92-.36-3.19-.06-.22.05-.44.11-.65.17-.96.29-1.72.68-2.31,1.19-.8.69-1.37,1.73-1.92,2.77l-.16.27c-.48.82-.94,1.6-1.18,2.4-.33,1.09-.45,2.17-.53,3-.08.91,0,1.8.06,2.58l.04.48c.05.6.07,1.15.1,1.63.03.63.05,1.13.11,1.44.21.98.82,2.03,1.42,3.02.39.64.87,1.24,1.33,1.82.25.32.5.62.73.93.26.37.5.74.73,1.1.27.42.52.82.8,1.18.29.38.61.71.93,1.03.32.33.64.65.91,1.01.3.38.55.79.81,1.21.23.37.46.74.72,1.09l.56.73c.36.47.74.95,1.12,1.49.27.4,1.47.72,2.27.94.55.15,1.02.28,1.33.43.68.32,2.73,4.12,2.67,5.19-.18,1.1-.17,3.74-.97,4.3-.46.32-1.01.59-1.6.76-.38.11-.76.19-1.12.22-.34.05-.7,0-1.01-.03-.26-.03-.53-.06-.66-.04-.06.07-.11.18-.16.31-.08.21-.19.46-.41.66-.66.64-1.41,1.15-2.27,1.71-.44.29-.88.59-1.31.89l-.98.67c-.58.36-1.07.72-1.53,1.06-.41.3-.79.58-1.18.82-.96.6-1.94,1.06-2.98,1.55l-.67.3c-.62.27-1.56.68-1.72.73,0,0,0,0,0,0,0,0,.06.08.34.19.75.29,1.36.46,2.04.56,1.15.17,2.37.32,3.53.16.84-.12,1.6-.28,2.28-.49.42-.13.82-.27,1.16-.44.56-.27.77-.43,1-.6.27-.2.57-.42,1.35-.82l2.46-1.24c.39-.19.77-.41,1.17-.62.42-.23.84-.46,1.27-.67.45-.22.9-.43,1.34-.63.4-.18.79-.35,1.16-.54.44-.22.87-.44,1.26-.65.43-.22.83-.43,1.2-.61.49-.22,1.04-.39,1.61-.56.58-.18,1.18-.36,1.73-.61,1.17-.53,1.85-1.17,2.21-2.1.38-.99.33-1.94-.13-2.67-.49-.77-1.88-2.97-2.92-2.94-.29-.02-.61-.07-.97-.13-.01,0-.03,0-.05,0,.03-.04.07-.07.11-.11.6-1.13.81-3.94,1.52-4.94l.47-.65c.48-1.04.46-2.27-.04-3.86-.17-.51-.46-.91-.77-1.33-.18-.24-.35-.47-.49-.72-.48-.81-.75-1.63-.86-2.57-.13-.84-.11-1.68-.1-2.48Z"/>
        </g>
        <path class="cls-1" d="M75.82,237.78c-.32-.1-.99-.31-1.41-.15-1.37.87-2.6,2.42-3.78,3.59-2.42,2.55-4.47,4.81-6.48,7.89-2.04,2.95-4.51,6.45-6.09,9.46-.44,1-.69,1.29.04,1.75,3.41.99,7-1.74,11.57-1.25,2.43.24,4.8-.24,7.24-.7,2.88-.85,5.61-.54,7.46-2.3.83-1.95-1.75-3.52-2.73-5.16-2.11-3.38-3.96-9.08-5.67-13.01l-.16-.12ZM191.97,192.52c-2.27-.09-4.66-.25-6.95-.19-2.56.06-4.97.2-6.93.35,1.79-1.1,3.49-2.32,5.17-3.58,1.68-1.26,3.49-2.39,4.99-3.87,1.48-1.46,2.65-3.18,3.88-4.91-1.42,1.23-2.85,2.23-4.3,3.25-1.51,1.06-3.06,1.98-4.6,2.91-1.56.93-3.02,2.03-4.61,2.91-2.07,1.22-5.64,2.2-8.4,3.23-1.85.69-3.57,1.87-5.49,2.34-1.92.47-3.93.7-5.9.85-2.22.17-4.47.06-6.69-.12-2.21-.18-4.41-.59-6.58-1.14-2.14-.54-4.3-1.14-6.37-2.04-1.39-.61-2.67-1.3-3.95-2.06-.86-.62-1.64-1.25-2.36-1.83-1.82-1.46-3.21-2.85-4.19-4.15-2.15-2.87-2.55-5.11-2.54-5.31,0-.28,1.57-1.18,4.75-2.15,1.38-.42,3.05-.75,5.14-.99.01,0,2.64-.64,6.12-.58,1.92.03,4.07.69,6.17.73,2.26.04,4.44.09,6.17.14,1.72.05,3.85-.33,5.94-.81,1.97-.45,3.83-1.53,5.58-2.11,3.18-1.06,3-.42,5.77-1.49,1.48-.58,2.11-.84,2.84-1.15.05.34.08.68.09,1.03.02.64.04,1.3-.05,1.93-.09.64-.25,1.21-.46,1.82.5-.23.89-.51,1.29-.88.4-.37.76-.8,1.03-1.27.28-.5.45-1.13.62-1.8.15-.6.29-1.23.35-1.88,0-.06.01-.11.02-.17.29-.13.59-.26.87-.39.17.44.35.87.43,1.29.11.62.17,1.24.18,1.85.01.61-.2,1.21-.29,1.83-.08.59-.09,1.21-.25,1.82-.15.57-.39,1.14-.61,1.74.64-.29,1.22-.7,1.74-1.17.52-.47,1.07-.95,1.43-1.56.26-.45.4-1.06.6-1.68.17-.53.38-1.09.51-1.69.12-.57.24-1.16.31-1.75.08-.59.03-1.2.07-1.78.04-.58.19-1.14.2-1.67.56-.72.65-.95.71-2.28.11-2.5.33-3.31-.78-4.94-1.63-2.74-6.54-2.22-7.37-2.12-.83.1-3.74-.45-6.06-.52-1.65-.05-1.91,1.11-4.54,1.41-1.1.12-2.63-.39-4.79-.6-1.59-.15-3.27-.05-4.89,0-1.7.06-3.36.23-4.86.41-3.67.4-3.14.65-6.3,1.31-3,.63-2.77.23-6.09.85-1.94.37-4.09.81-6.04,1.16-3.12.57-5.72.63-6.06.62-4-.12-4.01-.06-8,.11-1.65.65-3.25,1.18-4.62,1.96-.9.51-1.62,1.2-2.31,1.89-1.43.66-2.75,1.58-4.17,2.41-1.55.91-2.96,2.01-4.44,3.16-1.42,1.1-2.86,2.18-4.21,3.48-1.3,1.25-2.98,2.19-4.19,3.61-1.17,1.38-1.87,3.16-2.95,4.68-1.05,1.48-2.17,2.93-3.11,4.52-.93,1.57-1.75,3.2-2.56,4.86-.8,1.64-2.08,3.09-2.76,4.81-.67,1.7-.62,3.67-1.15,5.43-.53,1.75-.91,3.52-1.3,5.32-.39,1.79-1,3.53-1.23,5.36-.23,1.82-.11,3.65-.17,5.49-.06,1.84,0,3.63.12,5.47.13,1.83.2,3.64.52,5.45.32,1.8.48,3.64,1,5.41.51,1.75,1.61,3.28,2.33,4.98.71,1.67.91,3.6,1.84,5.21.9,1.57,2.32,2.82,3.43,4.32,1.07,1.45,1.62,3.4,2.9,4.77.39.34,1.14-.19,1.62-.29,1.72-.56,3.61-.19,5.33-.42,1.77-.24,3.5-1.16,5.26-1.11,1.77.06,3.43,1.19,5.18,1.48,1.74.29,3.44.61,5.15,1.07,1.71.46,3.58.37,5.26.95,1.68.58,3.29,1.37,4.93,2.01,1.67.65,3.44,1.01,5.06,1.66,1.68.68,3,2.16,4.62,2.78,1.71.65,3.62.6,5.25,1.11,1.77.55,3.47.95,5.13,1.24,1.83.32,3.53.19,5.21.06,1.79-.14,3.58.03,5.19-.76.59-.26.67-1.7.07-1.95-2.38-1.01-2.07-.16-4.96-1.57-1.33-.65-2.59-2.02-4.31-2.93-1.42-.75-3.29-.95-4.88-1.86-1.43-.82-2.68-2.13-4.2-3.07-1.43-.89-2.75-2.02-4.21-3.01-1.41-.96-3.26-1.35-4.65-2.39-1.38-1.03-2.67-2.21-4-3.32-1.33-1.12-2.49-2.44-3.72-3.63-1.63-.41-3.23-1.26-4.93-1.72-1.71-.46-3.37-.92-4.94-1.49-1.74-.64-3.66-.7-5-1.57-1.6-1.04-2.69-2.82-3.3-4.34,2.53-.3,1.76,1.52,4.45,2.73,1.37.62,2.93,1.46,4.76,1.78,1.57.27,2.88.06,4.67-.18-1.04-1.31-1.95-2.46-2.85-4.14-.83-1.55-1.07-3.46-1.71-5.17-.63-1.7-1.3-3.39-1.68-5.12-.4-1.83-1.18-3.62-1.23-5.34-.05-1.93.38-3.85.88-5.44.29-.91,1.24-1.71,2.15-2.05,1.33-.5,2.78-.5,3.49-.8,1.45-.62,1.03-2.95-.52-3.38-1.28-.36-2.66-1.28-4.21-2.27-1.2-.77-2.43-1.74-3.59-3.07-.94-1.09-2.05-2.28-2.84-3.85-1.02-2.11-1.34-4.03-1.52-5.66-.1-.93-.06-1.79.05-2.61.11,1.32.36,2.5.86,3.48.84,1.65,2.59,2.51,4.32,3.62,1.43.91,2.91,2.09,4.86,2.9,1.61.67,3.37,1.36,5.28,2.11,1.66.64,3.58.9,5.44,1.69,1.45.36,2.73,1.1,4.02,1.39,1.62.36,3.09.55,4.19.74.47.08.83.39,1.24.62.73.41,1.69.86,2.74,1.45,1.26.71,2.89,1.32,4.5,2.28,1.36.81,2.57,2.11,4.09,2.98,1.43.82,2.98,1.53,4.49,2.3,1.51.78,2.99,1.66,4.51,2.29,1.61.67,3.38.76,4.92,1.16,1.75.46,3.36.88,4.9.84,6.29-.45,4.46.75,7.76-1.51,2.81-1.93,4.34-2.83,3.25-5.37-1.29,1.59-4.29,1.04-5.39.58-1.53-.64-3.09-1.22-4.55-2.13-1.41-.87-2.92-1.66-4.25-2.75-1.28-1.04-2.44-2.29-3.66-3.51-.58-.51-3.09-1.7-6.76-2.98-.97-.33-2.21-1.15-3.6-2.08,1.78.77,3.58,1.32,5.43,1.75,2.08.48,4.13,1.06,6.25,1.13,2.12.07,4.28.09,6.39-.22,2.09-.31,4.16-.91,6.2-1.56,1.69-.38,3.33-.98,5.04-1.32,1.7-.34,3.39-.76,5.1-1.06,1.71-.3,3.48-.26,5.19-.52,2.6-.35,5.13-.92,7.48-1.17,2.94-.32,5.66-.36,7.61-.66-1.9-.39-4.42-.48-7-.59ZM176.87,161.01c.44.13.84.37,1.15.8.23.33.43.76.53,1.33.02.57-.1.23-1.13-.06-.59-.17-.71-.62-1.01-1.04-.23-.32-.54-.64-1.23-.8.39-.13,1.3-.34,1.69-.23ZM147.1,162.69c.51.07,1.1.22,1.76.3.55.07,1.16.07,1.78.12.58.04,1.18.03,1.79.03.59,0,1.18-.1,1.78-.16.6-.05,1.18-.14,1.75-.27.59-.14,1.18-.24,1.7-.49.87-.41,1.38-.48,1.61-.36.33.16.15.78-.43,1.48-.31.38-.76.76-1.24,1.16-.42.35-.94.59-1.44.88-.49.29-.96.61-1.48.8-.55.2-1.1.36-1.64.37-.42,0-1.01-.19-1.69-.44-.51-.19-1.11-.31-1.67-.58-.53-.25-1.04-.58-1.54-.86-.56-.31-1.06-.66-1.5-.95-.81-.53-1.33-.99-1.26-1.15.06-.15.71-.04,1.73.11ZM111.74,218.61c1.81-.12,3.69.58,5.62.8,1.82.21,3.81-.15,5.69.34s3.59,1.18,5.37,1.86c1.74.67,3.48,1.48,5.17,2.33,1.68.84,3.17,2.06,4.76,3.07,1.6,1.01,2.94,2.35,4.41,3.5,1.5,1.18,3.16,2.12,4.49,3.42s2.27,3.03,3.4,4.49c1.18,1.53,2.47,2.89,3.34,4.51.91,1.71,1.45,3.48,1.93,5.25s.72,3.63.69,5.5c-.02,1.85.14,4.08-.48,5.92-1.58-.99-3.45-2.1-5.01-3.06-1.59-.98-3.24-1.83-4.8-2.8-1.59-.99-3.16-1.97-4.7-2.96-1.58-1.01-2.99-2.24-4.5-3.26s-2.88-2.36-4.36-3.45c-1.51-1.11-3.18-1.97-4.59-3.13-1.44-1.19-2.66-2.61-3.98-3.87s-2.68-2.56-3.88-3.95-2.44-2.79-3.49-4.31c-1.04-1.51-2.23-2.98-3.1-4.63-.85-1.61-1.22-3.48-1.89-5.24-.05-.16-.08-.32-.08-.32Z"/>
      </g>
      <g>
        <g>
          <g>
            <path class="cls-1" d="M43.87.18c6.41-.44,12.95.85,19.37,2.96,1.24.41,2.48.84,3.65,1.41,6.48,3.18,9.14,8.85,7.33,15.83-.53,2.04-1.3,4.06-2.27,5.94-2.69,5.2-8.87,5.73-12.35,1.08-1.37-1.83-2.46-3.86-3.79-5.72-5.74-7.99-13.55-10.98-23.13-9.22-6.9,1.27-9.31,8.51-4.74,13.91,2.37,2.8,5.44,4.7,8.74,6.17,6.26,2.8,12.6,5.45,18.86,8.25,7.64,3.42,13.98,8.41,18.04,15.9,3.6,6.64,4.08,13.85,2.53,21-3.08,14.21-11.45,23.92-25.62,28.2-14.66,4.03-29.13,2.21-42.88-4.21-5.8-2.71-8.34-7.73-7.44-14.11.47-3.38,1.36-6.72,2.28-10.01.75-2.68,2.34-4.6,5.46-4.82,3.23-.24,5.83.55,7.28,3.7,2.3,4.98,5.63,9.18,9.74,12.78,5.58,4.9,12.04,7.11,19.46,6.05,5.75-.82,8.89-4.44,8.82-9.91-.03-2.06-.63-3.82-2.03-5.36-2.11-2.32-4.45-4.29-7.35-5.61-8.18-3.71-16.32-7.53-24.51-11.23C7.39,57.75-.04,45.23,1.4,31.6c1.27-11.93,7.28-21.07,18.41-26.49C27.32,1.46,35.13-.41,43.87.18Z"/>
            <path class="cls-1" d="M134.22,108.22c-5.2,0-9.56-.13-14.29-1.22-16.55-3.81-27.66-14.19-34.09-29.66-5.56-13.37-5.54-27.21-1.74-40.89,4.28-15.41,14.39-26.24,28.99-32.53C121.64.22,130.83-.48,140.07.6c6.2.73,12.26,2.06,17.78,5.19,12.18,6.91,20.74,16.73,24.56,30.41,2.68,9.59,3.23,19.31,1.91,29.14-.26,1.93-.86,3.81-1.28,5.72-.49,2.22-.97,4.45-1.46,6.68-.13.63-.04,1.44-.41,1.87-4.34,5.06-7.18,11.24-12.3,15.77-4.72,4.18-9.82,7.49-15.67,9.82-6.04,2.4-12.47,3.01-18.99,3.01ZM150.83,54.51c-.8-7.88-1.35-16.19-2.57-24.41-.77-5.16-2.55-10.11-6.55-13.95-4.89-4.69-11.65-4.73-16.62-.05-4.03,3.81-5.92,8.76-6.57,13.93-1.1,8.73-1.59,17.54-2.08,26.34-.17,3.07.62,6.18.61,9.27,0,5.61.95,11.07,2.29,16.46,1.1,4.47,2.88,8.66,6.62,11.74,4.25,3.5,10.67,3.49,14.88-.03,4.4-3.68,6.58-8.69,7.4-14.01,1.27-8.21,1.74-16.54,2.59-25.29Z"/>
            <path class="cls-1" d="M192.79,53.34c-.37-8.48-.59-16.97-1.2-25.43-.17-2.34-1.47-4.61-2.26-6.91-.48-1.37-1.25-2.7-1.44-4.11-.7-5.3.79-8.21,5.83-9.93,6.33-2.16,12.83-3.86,19.3-5.58,3.09-.82,5.73.64,8.22,2.36,1.47,1.01,2.92,2.19,4.57,2.74,2.7.91,5.49.8,8-.9,1.35-.91,2.71-1.82,4.07-2.73,2.65-1.76,5.53-2.78,8.74-2.85,5.14-.11,8.73,2.55,9.98,7.57,1.08,4.35.91,8.74.29,13.15-.65,4.69-3.76,7.09-7.86,8.45-1.84.61-3.84,1.03-5.77,1.04-8.18.04-13.76,5.63-15.93,14.11-.81,3.14-1.19,6.45-1.27,9.69-.21,8.83-.08,17.66-.21,26.49-.07,4.86.76,9.32,3.45,13.54,2.26,3.53,1.35,6.85-1.96,8.87-1.06.65-2.45,1.05-3.69,1.06-9.32.1-18.65.24-27.96,0-4.85-.12-8.28-5.27-6.48-9.91,4.23-10.88,2.77-22.21,3.21-33.4.05-1.3-.25-2.6-.25-3.91,0-1.14.22-2.27.34-3.42.09,0,.19,0,.28-.02Z"/>
            <path class="cls-1" d="M264.83,53.34c-.37-8.48-.59-16.97-1.2-25.43-.17-2.34-1.47-4.61-2.26-6.91-.48-1.37-1.25-2.7-1.44-4.11-.7-5.3.79-8.21,5.83-9.93,6.33-2.16,12.83-3.86,19.3-5.58,3.09-.82,5.73.64,8.22,2.36,1.47,1.01,2.92,2.19,4.57,2.74,2.7.91,5.49.8,8-.9,1.35-.91,2.71-1.82,4.07-2.73,2.65-1.76,5.53-2.78,8.74-2.85,5.14-.11,8.73,2.55,9.98,7.57,1.08,4.35.91,8.74.29,13.15-.65,4.69-3.76,7.09-7.86,8.45-1.84.61-3.84,1.03-5.77,1.04-8.18.04-13.76,5.63-15.93,14.11-.81,3.14-1.19,6.45-1.27,9.69-.21,8.83-.08,17.66-.21,26.49-.07,4.86.76,9.32,3.45,13.54,2.26,3.53,1.35,6.85-1.96,8.87-1.06.65-2.45,1.05-3.69,1.06-9.32.1-18.65.24-27.96,0-4.85-.12-8.28-5.27-6.48-9.91,4.23-10.88,2.77-22.21,3.21-33.4.05-1.3-.25-2.6-.25-3.91,0-1.14.22-2.27.34-3.42.09,0,.19,0,.28-.02Z"/>
            <path class="cls-1" d="M368.34,3.97c3.88.81,6.26,3.56,6.57,7.47.09,1.13.1,2.34-.23,3.4-1.45,4.64-.61,8.61.98,12.97,2.69,7.37,5.51,14.69,8.29,22.03.59,1.55,1.29,2.94,2.93,3.74,3.74,1.83,6.25,1.12,8.02-2.67,1.11-2.37,1.91-4.87,2.89-7.29,1.29-3.17,2.71-6.3,3.91-9.51,1.14-3.06,1.7-5.56,2.64-8.69,1.01-3.37.86-6.72-.25-10.11-1.97-6.06,1.03-10.81,7.36-11.54,2.22-.26,4.6-.08,6.78.42,4.51,1.04,6.56,5.85,4.48,10.04-.51,1.02-1.29,1.9-1.83,2.9-1.63,3.02-3.04,5.35-4.32,8.51-4.75,11.64-9.36,23.35-13.92,35.07-5.33,13.7-10.49,27.46-15.84,41.15-2.32,5.93-4.93,11.74-7.45,17.59-2.27,5.29-5.25,10.19-9.02,14.53-6.27,7.22-14.17,11.47-23.82,12.04-3.25.2-6.55.16-9.79-.09-2.25-.17-4.6-.57-6.66-1.44-4.37-1.86-7.05-5.11-7.22-10.13-.14-4.19.83-8.16,2.44-11.91.64-1.5,2.31-2.59,3.59-3.79.32-.3,1.14-.14,1.36-.45,2.85-4.09,6.61-2.57,10.05-1.42,4.91,1.65,9.89,2.12,14.99,1.8,4.15-.26,8.04-1.36,11.44-3.87,4.5-3.31,6.19-7.91,4.61-13.34-.78-2.66-1.9-5.22-2.97-7.78-8.76-20.78-17.51-41.56-26.35-62.31-2.3-5.41-4.58-10.36-8.26-15.04-1.24-1.58-1.99-3.36-1.91-5.43.13-3.73,2.04-6.34,5.76-6.75,5.34-.59,28.88-.48,30.79-.08Z"/>
          </g>
          <g>
            <path class="cls-1" d="M604.22,53.81c-.17,1.39-.67,2.69-1.19,3.93-3.23,7.63-6.22,15.42-9.85,22.8-4.33,8.81-10.02,16.53-18.77,21.57-3.93,2.27-8.34,3.34-13.45,3.1-6.97-.32-12.81-3.63-17.61-9.66-4.18-5.27-6.15-10.9-6.41-16.62-.25-5.39.05-10.66,1.83-15.32,3.03-7.95,6.23-15.79,9.46-23.63,1.81-4.39,3.85-8.64,5.7-13,.38-.9.57-2.01.48-3.09-.29-3.46-3.02-6.27-6.48-4.59-1.68.81-3.49,1.57-4.78,2.8-9.32,8.88-17.17,18.92-21.83,31.37-3.4,9.09-6.68,18.24-10.08,27.33-2.08,5.58-3.2,8.72-5.36,14.25-2.22,5.7-6.94,8.31-13.59,8.49-1.88.05-3.8-.01-5.69.02-6.5.09-10.72-6.9-8.89-11.47.5-1.26,1.07-2.49,1.62-3.72,2.71-6.19,4.45-9.94,7.06-16.18,1.43-3.43,2.43-7.11,3.83-10.56,4.09-10.05,8.32-20.01,12.4-30.06.95-2.35,1.78-4.81,2.18-7.41.18-1.21-.42-3.1-1.35-4.26-1.34-1.69-3.51-1.89-4.88-1.17-2.38,1.25-4.67,2.72-6.57,4.52-2.88,2.74-5.55,5.72-8.03,8.82-2.17,2.71-4.18,5.58-5.88,8.64-3.25,5.85-6.1,11.96-9.36,17.8-6.62,11.89-10.02,22.63-14.61,35.67-1.97,5.61-6.09,8.63-12.42,9.16-2.58.22-5.24.31-7.92.12-6.59-.48-10.78-5.77-9.06-11.29.36-1.15.83-2.24,1.27-3.35,3.75-9.46,6.55-16.49,10.26-25.98,4.76-12.16,9.42-24.37,14.19-36.53,1.73-4.42,3.67-8.73,5.45-13.13,1.82-4.51,5.65-6.35,10.95-6.29,2.29.02,4.58.07,6.84.03,2.52-.03,4.93.57,7.53,1.83,5.51,2.66,10.49,2.6,14.79.24,3.43-1.88,6.73-3.9,10.85-4.77,6.28-1.32,12.38-.24,18.34,5.25.96.88,1.94,1.75,2.96,2.54,4.62,3.6,8.39,3.99,12.21,1.38,3.18-2.18,6.29-4.45,9.67-6.38,2.04-1.17,4.37-2.07,6.81-2.59,10.41-2.21,22.18,5.52,22.97,17.82.3,4.66-.4,9.01-2.13,12.97-2.63,6.05-5.19,12.14-7.47,18.38-1.04,2.86-1.55,6.05-1.89,9.23-.19,1.7.17,3.74.84,5.56,1.33,3.57,4.49,5.97,8.06,5.94,2.39-.02,4.85-.47,6.71-1.48,4.06-2.21,7.12-5.47,9.4-9.46,2.16-3.77,4.53-7.4,6.94-10.99.49-.73,1.6-1,2.82-1.72.54,1.42,1.21,2.4,1.13,3.12Z"/>
            <path class="cls-1" d="M682.13,24.74c1.99,9.13,2.93,13.61,1.88,20.81-.28,1.93-.91,3.72-1.1,5.67-.25,2.53.82,4.66,2.67,5.68,2.26,1.24,4.38,1.23,5.97.11,1.21-.85,2.07-2.14,2.98-3.31,1.52-1.97,2.89-4.06,4.44-6.01.9-1.13,2.25-1.59,3.98-.31,1.65,1.22,1.88,2.76,1.51,4.18-.26,1-.72,1.92-1.24,2.76-2.54,4.11-4.93,8.34-7.75,12.22-2.65,3.64-6.99,5.21-11.92,5.56-6.74.47-11.38,3.5-14.39,8.57-2.66,4.46-5.68,8.6-9.28,12.29-6.27,6.43-14.08,10.66-23.95,11.98-13.38,1.78-27.01-6.55-33.12-20.28-2.5-5.62-4.69-11.28-4.05-16.83-2.53-10.21.24-18.56,3.97-26.29,3.8-7.88,9.23-14.58,15.64-20.48,5.9-5.44,10.89-7.26,18.18-11.04,6.1-3.16,12.55-5.68,20.42-5.43,1.91.06,3.79-.02,5.61,1.82.48.49,1.53.89,2.12.81,6.39-.8,10.09,4.01,13.31,8.7,2.1,3.06,3.13,6.63,4.12,8.82ZM660.73,64.85c-2.3-4.57-3.74-9.16-4.45-13.65-1.17-7.29.85-12.91,7.52-15.35,1.77-.65,3.84-.83,5.84-1.06,3.96-.46,5.48.47,5.67-3.29.21-4.11-.91-8.76-5.06-12.45-4.04-3.59-8.35-4.86-12.83-3.89-5.57,1.2-10.23,3.64-13.72,7.49-2.77,3.06-3.62,3.66-5.94,7.1-5.81,8.61-7.08,19.03-4.8,30.72,1.63,8.37,9.71,13.92,17.54,12.39,4.89-.95,7.97-3.77,10.22-8.01Z"/>
            <path class="cls-1" d="M860.04,53.81c-.17,1.39-.67,2.69-1.19,3.93-3.23,7.63-6.22,15.42-9.85,22.8-4.33,8.81-10.02,16.53-18.78,21.57-3.93,2.27-8.34,3.34-13.45,3.1-6.98-.32-12.82-3.63-17.61-9.66-4.18-5.27-6.15-10.9-6.41-16.62-.25-5.39.05-10.66,1.83-15.32,3.03-7.95,6.23-15.79,9.46-23.63,1.8-4.39,3.85-8.64,5.69-13,.38-.9.58-2.01.49-3.09-.29-3.46-3.02-6.27-6.48-4.59-1.68.81-3.49,1.57-4.78,2.8-9.32,8.88-17.17,18.92-21.83,31.37-3.4,9.09-6.68,18.24-10.07,27.33-2.08,5.58-3.2,8.72-5.36,14.25-2.22,5.7-6.94,8.31-13.59,8.49-1.88.05-3.8-.01-5.68.02-6.5.09-10.72-6.9-8.89-11.47.5-1.26,1.07-2.49,1.62-3.72,2.71-6.19,4.45-9.94,7.06-16.18,1.43-3.43,2.43-7.11,3.83-10.56,4.09-10.05,8.32-20.01,12.4-30.06.95-2.35,1.78-4.81,2.18-7.41.18-1.21-.42-3.1-1.35-4.26-1.35-1.69-3.51-1.89-4.88-1.17-2.38,1.25-4.67,2.72-6.57,4.52-2.88,2.74-5.54,5.72-8.03,8.82-2.17,2.71-4.18,5.58-5.88,8.64-3.25,5.85-6.1,11.96-9.36,17.8-6.63,11.89-10.03,22.63-14.61,35.67-1.97,5.61-6.09,8.63-12.42,9.16-2.58.22-5.24.31-7.92.12-6.59-.48-10.79-5.77-9.06-11.29.36-1.15.83-2.24,1.27-3.35,3.75-9.46,6.55-16.49,10.26-25.98,4.76-12.16,9.42-24.37,14.19-36.53,1.73-4.42,3.67-8.73,5.45-13.13,1.83-4.51,5.65-6.35,10.95-6.29,2.29.02,4.58.07,6.84.03,2.52-.03,4.93.57,7.53,1.83,5.5,2.66,10.49,2.6,14.78.24,3.42-1.88,6.73-3.9,10.85-4.77,6.28-1.32,12.38-.24,18.34,5.25.96.88,1.94,1.75,2.96,2.54,4.62,3.6,8.39,3.99,12.21,1.38,3.18-2.18,6.3-4.45,9.67-6.38,2.04-1.17,4.38-2.07,6.81-2.59,10.41-2.21,22.18,5.52,22.97,17.82.3,4.66-.4,9.01-2.13,12.97-2.63,6.05-5.19,12.14-7.47,18.38-1.05,2.86-1.55,6.05-1.9,9.23-.18,1.7.17,3.74.85,5.56,1.32,3.57,4.48,5.97,8.06,5.94,2.38-.02,4.84-.47,6.71-1.48,4.06-2.21,7.12-5.47,9.41-9.46,2.16-3.77,4.53-7.4,6.94-10.99.49-.73,1.59-1,2.82-1.72.54,1.42,1.21,2.4,1.13,3.12Z"/>
          </g>
        </g>
        <g>
          <path class="cls-1" d="M359.54,255.42c-3.31,3.33-6.98,6.3-11.7,7.5-9.7,2.48-18.34.71-25.58-6.5-.7-.7-1.39-1.41-2.11-2.08-3.62-3.32-8.03-3.34-11.43.27-3.75,3.98-8.29,6.86-13.4,8.21-11.69,3.09-23.62,1.19-31.81-9.13-3.2-4.03-4.9-8.77-5.27-13.99-.38-5.26.3-10.37,1.98-15.29,1.58-4.62,4.5-8.49,8.26-11.63,1.6-1.34,3.32-2.55,5.1-3.64,3.5-2.13,4.85-6.11,3.14-9.89-.76-1.68-1.66-3.31-2.49-4.96-2.79-5.56-4.19-11.47-2.83-17.58,1.83-8.19,5.92-14.73,14.42-17.75,5.33-1.89,10.7-2.86,15.81-2.34,5.73-.37,10.9-.27,15.83,1.75.46.19.93.32,1.39.51,5.52,2.31,7.11,6.54,5.59,12.42-.49,1.88-1.45,3.67-2.36,5.41-.95,1.84-2.38,3.29-4.65,3.06-2.16-.22-3.53-1.62-4.25-3.63-.54-1.51-.94-3.08-1.58-4.54-1.9-4.28-5.01-7.29-9.58-8.56-4.71-1.31-9.56,2.37-9.72,7.29-.09,2.69.74,5.18,2.18,7.35,2.24,3.39,4.62,6.7,7.13,9.89,9,11.44,18.05,22.84,27.15,34.2,4.7,5.87,9.48,11.68,14.34,17.42,3.06,3.6,6.95,5.82,11.8,6.19,1.31.1,2.77.36,3.83,1.06,3.12,2.03,3.58,6.19.8,8.99ZM307.27,241.44c0-2.26-.81-4.04-2.15-5.73-3.75-4.73-7.47-9.48-11.23-14.19-1.54-1.92-3.14-3.8-4.75-5.65-1.69-1.94-3.92-2-6.13-1.35-2.18.63-2.88,2.54-3.14,4.58-.17,1.34-.18,2.7-.27,4.05.02,0,.05,0,.07,0,0,.74-.04,1.48,0,2.22.51,7.68,3.57,13.99,10,18.48,3.95,2.76,8.35,3.62,13.02,2.87,3.03-.49,4.57-2.25,4.58-5.29Z"/>
          <path class="cls-1" d="M454.31,237.18c-.27,1.28-.45,2.6-.95,3.8-3.75,8.91-9.85,15.68-18.45,20.18-5.48,2.87-11.45,3.52-17.47,3.71-11.07.35-20.82-2.87-29.13-10.22-9.26-8.2-13.82-18.82-15.74-30.79-1.59-10-1.01-19.83,1.72-29.6,2.24-8.03,6.06-14.99,11.6-21.27,1.21-1.37,2.61-2.56,4.04-3.69,1.48-1.17,2.92-2.37,4.48-3.44,10.29-7.02,15.51-8.54,26.96-9.03,21.97,1.62,32.33,8.94,32.33,17.32.13,6.25.2,24.8-10.21,24.8-6.72,0-12.35-15.19-19.89-23.4-5.7-8.59-15.87-5.79-20.27,4.27-.28.65-.71,1.43-1.12,2.27.09.1-1.3,3.05-1.82,4.59-4.57,13.4-2.86,26.2,4.83,37.98,6.08,9.32,15.3,13.17,26.13,12.39,3.91-.29,7.69-2.48,11.48-3.92,1.2-.46,2.19-1.46,3.36-2.01,2.04-.96,4.16-1.05,6.03.41,1.8,1.42,2.59,3.33,2.1,5.65Z"/>
          <path class="cls-1" d="M511.38,264.99c-5.2,0-9.57-.13-14.29-1.22-16.55-3.81-27.66-14.19-34.09-29.66-5.56-13.37-5.54-27.21-1.73-40.89,4.28-15.41,14.39-26.24,28.99-32.53,8.55-3.69,17.73-4.39,26.97-3.31,6.2.73,12.26,2.06,17.78,5.19,12.18,6.91,20.73,16.73,24.56,30.41,2.68,9.59,3.24,19.31,1.92,29.14-.26,1.93-.86,3.81-1.28,5.72-.49,2.22-.98,4.45-1.46,6.68-.13.63-.04,1.44-.41,1.87-4.34,5.06-7.18,11.24-12.29,15.77-4.72,4.18-9.82,7.49-15.67,9.82-6.04,2.4-12.47,3.01-18.99,3.01ZM528,211.29c-.8-7.88-1.35-16.19-2.57-24.41-.77-5.16-2.55-10.11-6.55-13.95-4.9-4.69-11.65-4.73-16.62-.05-4.04,3.81-5.92,8.76-6.57,13.93-1.1,8.73-1.59,17.54-2.08,26.34-.17,3.07.62,6.18.61,9.27,0,5.61.96,11.07,2.29,16.46,1.1,4.47,2.88,8.66,6.62,11.74,4.25,3.5,10.67,3.49,14.88-.03,4.4-3.68,6.58-8.69,7.4-14.01,1.27-8.21,1.73-16.54,2.59-25.29Z"/>
          <path class="cls-1" d="M582.85,264.78c-8.58,1.13-17.59-7.92-16.94-18.18.54-8.62,7.37-15.82,16.25-15.99,11.94-.23,17.78,8.25,18.21,16.67.53,10.47-8.46,18.23-17.51,17.49Z"/>
        </g>
      </g>
    </g>
  </g>
</svg>