<?xml version="1.0" encoding="UTF-8"?>
<svg id="Layer_2" data-name="Layer 2" xmlns="http://www.w3.org/2000/svg" viewBox="0 0 172.87 130.94">
  <defs>
    <style>
      .cls-1 {
        fill: #f9f5ed;
      }
    </style>
  </defs>
  <g id="Layer_1-2" data-name="Layer 1">
    <g>
      <g>
        <path class="cls-1" d="M109.88,64.23c-.49.15-.98.23-1.45.24-.77-.03-1.36-.09-1.89-.18-.39-.07-.78-.19-1.16-.31-.24-.07-.47-.15-.7-.21-.34-.09-.68-.15-1.01-.21-.31-.06-.61-.11-.91-.19l-.54-.15c-.48-.14-.93-.26-1.39-.33l-.4-.06c-.49-.07-1-.15-1.46-.33-.73-.28-1.21-.62-1.47-1.03-.11-.22-.19-.49-.28-.77-.07-.21-.13-.43-.21-.63l-.17-.41c-.14-.33-.28-.66-.37-.98-.08-.29-.17-.64-.23-.97.35.42.75.76,1.12,1.06.42.35,1,.79,1.74,1.03.53.17,1.1.23,1.7.3l.43.05c.58.06,1.18.13,1.81.12.21,0,.43,0,.65,0,.44,0,.88.01,1.32-.03.39-.04.77-.13,1.14-.21.26-.06.52-.12.78-.16.62-.1,1.22-.22,1.79-.33l.13-.03c.3-.06.6-.11.88-.16.37-.06.72-.12,1.03-.2.23-.06.44-.12.64-.17.4-.12.72-.24.95-.32.12-.04.21-.08.27-.09.54-.17,1.02-.45,1.42-.7.16-.1.32-.2.49-.29.24-.14.48-.28.7-.43.1.22.21.42.31.62.09.17.18.34.24.49l.04.09c.15.36.28.68.12.99-.42.75-.94,1.49-1.37,1.94l-.13.14.03.06c-.35.35-.76.73-1.2,1.06-.28.21-.61.37-.96.53-.21.1-.41.2-.61.31l-.26.15c-.44.25-.86.49-1.3.64l-.24.08Z"/>
        <path class="cls-1" d="M135.19,66.06c-.55.16-1.07.31-1.59.35-.5.04-1.04.03-1.65-.02-.64-.05-1.18-.14-1.64-.26-.5-.13-1-.3-1.52-.52-.52-.22-1.01-.46-1.47-.7l-.24-.13c-.41-.22-.81-.44-1.21-.67l-.21-.12c-.42-.24-.83-.48-1.26-.7-.51-.26-1-.52-1.53-.72-.27-.09-.76-.38-1.35-.93-.31-.29-.77-.73-1.21-1.25-.22-.25-.41-.55-.6-.86-.13-.2-.26-.4-.39-.59-.36-.51-.7-.97-.96-1.45-.34-.61-.61-1.09-.75-1.54-.29-.72-.5-1.33-.12-1.78.16-.21.33-.4.5-.59.16-.17.32-.35.46-.53.31-.39.61-.79.89-1.21.29-.43.51-.92.7-1.37.12-.26.22-.52.32-.79.12-.31.24-.62.39-.93.12-.22.26-.44.41-.65.24-.36.49-.73.66-1.18.17-.38.26-.77.36-1.15l.05-.2c.11-.44.22-.89.3-1.37.04-.29.19-.53.4-.66.15-.09.29-.15.41-.19.16-.05.29-.05.39,0,.38.22.7.46.98.74l.14.14c.28.28.56.56.96.75.49.26,1.06.41,1.69.44.66.04,1.22,0,1.72-.14h.01c.61-.19,1.1-.46,1.54-.72.37-.21.74-.48,1.17-.85.37-.33.7-.68.99-1.07.3-.41.55-.84.74-1.28.03-.07.07-.18.12-.3.06-.18.16-.48.27-.51.38.2.83.47,1.32.78l.21.13c.39.24.78.48,1.14.76.43.33.86.68,1.25,1.04.28.26.54.55.79.84l.47.52c.32.35.64.7.92,1.07.28.37.52.78.76,1.18l.12.21c.28.46.54.95.77,1.45l.14.3c.18.39.37.8.51,1.2.13.41.22.86.3,1.29l.06.31c.12.62.19,1.13.21,1.62.06.64.08,1.18.08,1.68,0,.43-.06.85-.11,1.29l-.05.36c-.06.51-.13,1.08-.26,1.64l-.09.42c-.09.4-.18.81-.32,1.18-.18.48-.44.95-.68,1.4-.29.52-.6.93-.96,1.38-.23.31-.57.46-.96.61l-.29.1c-.33.12-.68.24-.97.44-.27.21-.42.45-.57.68-.14.21-.27.42-.47.58-.1.09-.18.13-.31.19-.1.05-.22.11-.37.2-.38.23-.82.42-1.39.59l-.1.03Z"/>
        <path class="cls-1" d="M94.11,46.42c-.48.03-1,.04-1.6-.04-.52-.07-1.03-.16-1.54-.39-.5-.23-1.07-.6-1.65-1.07-.4-.32-.98-.81-1.5-1.34-.53-.54-.99-1.05-1.36-1.49-.62-.75-1.02-1.39-1.16-1.63-.25-.47-.32-1.11-.38-1.72l-.05-.47c-.1-.49-.2-1.04-.16-1.52.03-.4.21-.83.55-1.34.31-.44.67-.69,1.02-.89.19-.11.38-.24.59-.38.24-.17.51-.35.8-.51.35-.19.75-.36,1.16-.54l.33-.14c.34-.15.71-.27,1.09-.39l.71-.21c.42-.12.86-.25,1.31-.3.68-.03,1.37-.06,2.04-.24l.25-.07c.62-.19,1.2-.46,1.68-.7.02,0,.06-.02.1-.03.09-.03.14-.03.15-.02-.07.57,0,1.12.18,1.65l.07.22c.15.47.3.95.57,1.39.19.31.43.6.66.88.13.16.26.31.38.47.15.2.31.41.47.61.18.23.37.47.55.71l.08.1c.19.23.4.48.37.65-.01.1-.13.2-.23.26-.48.32-.9.66-1.29,1.05l-.3.29c-.3.28-.6.57-.85.92-.35.51-.64.97-.87,1.42-.27.53-.5,1.09-.67,1.51-.25.59-.36,1-.44,1.32-.06.25-.11.44-.21.63-.13.2-.25.47-.36.74-.07.18-.15.36-.23.51l-.11.07h-.14Z"/>
        <path class="cls-1" d="M112,57.25c-.45.13-.96.26-1.51.4-.28.07-.58.11-.88.14-.29.04-.58.07-.88.14-.56.12-1.15.22-1.75.32-.24.04-.49.09-.73.15-.34.07-.68.15-1.02.19-.6.06-1.19.11-1.77.12-.41,0-.83-.05-1.23-.1-.18-.03-.36-.05-.53-.07-.63-.07-1.2-.19-1.68-.37-.59-.22-1.14-.45-1.46-.83-.28-.34-.47-.78-.68-1.25l-.19-.43c-.28-.6-.48-1.24-.64-1.79-.07-.25-.16-.49-.25-.73-.14-.38-.27-.74-.33-1.11-.12-.71-.19-1.36-.22-1.92-.03-.53.05-1.03.11-1.48l.06-.42c.05-.57.27-1.09.49-1.59.08-.19.18-.38.27-.57.17-.34.35-.69.45-1.08.08-.22.13-.48.18-.74.06-.31.12-.6.23-.86.15-.34.36-.66.56-.98.09-.14.19-.29.27-.43.24-.41.55-.8.98-1.25l.23-.25c.29-.32.57-.63.92-.82.09-.02.17.08.34.47.07.15.14.3.23.42.3.56.67,1.07,1.07,1.47.32.32.71.51,1.09.69.16.08.32.16.47.24.12.07.24.15.37.22.38.23.77.47,1.22.61,1.21,1.44,5.65,2.22,6.05,2.49.72.29,1.39.45,2.05.51.67.06,1.35.03,2.03-.07.25-.04.49-.1.73-.17.3-.09.58-.19.86-.3l.63-.23c.56-.2,1.1-.39,1.55-.67.21-.12.37-.21.48-.25,0,.1-.04.26-.11.54-.09.51-.32.97-.55,1.39-.11.2-.24.39-.37.57-.17.25-.34.49-.46.76-.09.23-.17.49-.25.78-.06.22-.13.46-.21.7-.12.35-.31.7-.5,1.02l-.15.27c-.14.2-.27.44-.41.69-.14.25-.28.5-.44.74-.18.27-.39.53-.61.78-.14.17-.29.35-.42.52-.35.46-.74.88-1.07,1.24-.14.15-.27.31-.4.46-.23.28-.44.54-.7.73-.44.33-.9.6-1.38.81l-.18.08v.1Z"/>
        <path class="cls-1" d="M143.69,17.1c-.83-.09-2.49-.59-3.55-.33-.39.09-.8-.09-.91-.48-.26-.94-.68-2.17-.7-2.46-.03-.48-.17-.97-.3-1.44l-.1-.38c-.15-.58-.33-1.19-.62-1.74-.28-.53-.63-1.04-1.06-1.53-.18-.23-.37-.49-.58-.78-.19-.26-.39-.55-.61-.83-.18-.24-.41-.46-.63-.68-.25-.25-.5-.5-.73-.78-.41-.52-.83-1.04-1.25-1.55l-.19-.23c-.37-.45-.73-.89-1.09-1.29l-.19-.21c-.33-.36-.66-.73-1.01-1.07-.39-.37-.84-.79-1.29-1.02-.6-.22-1.17-.31-1.75-.28-.55.03-1.13.16-1.82.35-.13.03-.26.07-.39.11-.47.14-.93.31-1.39.49-.2.08-.4.16-.6.23-.4.15-.79.29-1.15.47-.53.27-1.02.57-1.46.84l-.16.1c-.3.21-.56.52-.84.85-.1.12-.2.24-.31.36-.36.4-.69.87-1.02,1.35-.13.2-.28.38-.43.57-.21.26-.41.53-.59.82l-.3.5c-.2.33-.41.66-.59.99-.19.32-.28.69-.39,1.08l-.07.28c-.12.44-.17.88-.21,1.3.41-.09.81-.11,1.2-.12.17,0,.34-.01.5-.02.77-.06,1.42-.01,2.04.15.75.2,1.34.47,1.87.86.53.39,1.07.83,1.49,1.44.3.43.48.93.66,1.46l.14.39c.05.09.15.17.25.26.07.05.13.11.19.17.46.46.95,1.09,1.41,1.7.15.2.33.4.51.61.29.34.6.69.87,1.11.05.07.09.15.14.24.04.07.11.22.15.23.06-.02.15-.12.17-.14.33-.4.66-.77,1.02-1.13.35-.34.74-.68,1.23-.94l.35-.19c.4-.22.82-.46,1.28-.63.17-.06.34-.12.51-.17.42-.13.85-.22,1.27-.31.64-.13,1.28-.11,1.84-.1.62.02,1.21.15,1.81.41.7.34,1.9,2.24,2.48,3.32-.39,1.97-.52,3.9-1.43,5.67-.52.81-1.47,1.34-1.87,2.24-.56,1.6-.67,3.35-1.49,4.87-.82,1.72-.19,3.72.58,5.33.5.77,1.37,1.24,2.15,1.78.86.57,1.72,1.13,2.52,1.77.81.54,1.63,1.74,2.51,1.96h.15c1.86-.28,3.49-1.36,4.99-2.54,2.28-1.55,4.48-3.36,5.53-5.99,2.83-6.86-1.42-15.55-8.75-17.28Z"/>
        <path class="cls-1" d="M110.56,20.7s-.12-.02-.17-.04c-.07-.02-.14-.03-.2-.04-1.03-.15-1.86,0-2.37.15-.08.02-.16.05-.23.08-.23.11-.47.21-.71.31-.26.11-.52.22-.78.34-.3.14-.6.25-.88.34-.2.06-.39.1-.56.13-.51.02-1.11.13-1.82.33h0c-.75.23-1.3.5-1.72.84-.03.02-.06.04-.09.04-.29-.13-.75-.43-1.12-.99-.2-.3-.34-.69-.49-1.11l-.16-.43c-.18-.46-.38-1.01-.53-1.6-.12-.52-.19-1.06-.25-1.67l-.03-.29c-.05-.46-.11-.93-.09-1.4.01-.43.09-.85.18-1.29l.07-.37c.03-.18.06-.37.08-.55.05-.39.1-.76.23-1.1.14-.36.37-.68.62-1.01.09-.13.19-.26.28-.39.05-.07.11-.16.17-.26.08-.12.2-.32.26-.37.12-.09.53-.29,1.16-.48.12-.04.78-.21.78-.21.39-.11.82-.23,1.28-.3.56-.08,1.19-.12,1.74-.15.33-.02.68.03,1.05.07.22.03.45.05.68.07h.24c.48.04.98.07,1.47.17l.34.06c.45.08.91.17,1.34.32.41.15.8.37,1.2.61l.32.18c.63.33,1.25.65,1.84,1.08.09.06.1.09.1.09-.46.42-.86.93-1.18,1.36l-.09.12c-.34.45-.69.93-.95,1.45-.26.52-.48,1.12-.66,1.77-.15.52-.2,1.08-.25,1.62l-.02.24c-.05.54-.06,1.13-.02,1.87.01.25-.02.35-.04.37h0Z"/>
        <path class="cls-1" d="M128.81,43.43c-.5.15-1.36-.25-1.86-.3-.66-.1-1.41-.55-1.81-1.09.09-.04.24-.08.33-.11,0,0,.23-.07.24-.07.75-.23,1.34-.54,1.83-.81.59-.33,1.19-.7,1.64-1.2.48-.54.7-1.16.88-1.76.18-.63.33-1.24.2-1.91-.09-.57-.42-1.18-.95-1.75-.55-.59-1.13-.98-1.74-1.14-.13-.03-.12-.22-.05-.29l.18-.19c.51-.5,1.19-1.28,1.42-2.1.15-.48.2-1.12.13-1.8-.05-.51-.23-1.01-.41-1.5l-.06-.17c-.18-.51-.5-.93-.78-1.3l-.13-.17c-.3-.39-.34-.92-.35-1.34,0-.79.06-1.45.2-2.21.13-.33.39-.63.7-.98.14-.16.28-.32.42-.5.18-.19.35-.42.52-.64.35-.46.68-.89,1.19-1.15.44-.24.97-.48,1.61-.72l.25-.09c.3-.11.6-.23.91-.32.17-.05.34-.1.51-.13.45-.09.94-.07,1.4-.05l1.42,1.45c.07.46.16.97.19,1.51.05.69.09,1.3-.03,1.83-.14.62-.46,1.07-.96,1.39-.46.25-.99.64-1.5,1.08-.33.29-.62.64-.93,1.01l-.28.33c-.45.52-.79.98-1.07,1.43-.29.47-.49.97-.68,1.46l-.06.14c-.19.49-.32,1.01-.41,1.68-.1.62.51,2.8.65,3.39.07.27.12.55.18.82.06.29.12.58.19.86.08.32.15,1.19.18,1.52.02.17.04.34.06.5s.06.33.09.5c.38,1.26-.45,2.64-.45,2.64-.28.43-.72.84-1.12,1.19-.44.38-.99.71-1.61.95-.1.04-.2.07-.3.1Z"/>
        <path class="cls-1" d="M113.69,40.57c-.19.04-.9.19-1.83.41-.55.13-1.19.24-1.86.34-.64.09-1.3.12-1.87.14-.17,0-.34.02-.52.03-.48.03-.93.06-1.33-.02-.65-.12-1.2-.37-1.59-.71-.43-.33-.79-.76-1.13-1.32-.32-.53-.65-1.06-1-1.55-.13-.2-.26-.42-.4-.63-.34-.55-.7-1.12-1.14-1.67-.16-.23-.38-.48-.62-.74-.24-.27-.49-.56-.72-.87-.4-.53-.7-1.17-.96-1.72-.34-.72-.59-1.38-.32-1.82.16-.3.35-.6.55-.93.16-.25.32-.51.48-.79.15-.26.3-.52.44-.79.18-.32.36-.64.54-.95.19-.32.4-.61.61-.89.19-.26.37-.51.51-.75.24-.39.58-.72,1.05-1.03.41-.28.76-.51,1.14-.62.06-.02.13-.04.2-.05.18-.02.37-.04.56-.05.34-.02.7-.04,1.06-.14.21-.05.43-.11.64-.17.42-.13.79-.27,1.11-.42l.56-.27c.42-.2.77-.37,1.04-.47.54-.07,1.44,0,2.17.17.28.06.43.21.54.54.22.61.59,1.35,1.01,1.99.29.46.66.89.97,1.27.13.16.26.31.37.45.14.19.26.4.39.61.16.26.33.53.51.77.18.23.37.46.56.68.17.19.33.39.49.59.18.23.35.46.52.7.15.21.3.42.46.62.1.16.26.29.41.41.27.22.41.35.4.67,0,.2-.27.34-.68.53-.36.17-.77.36-.98.71-.38.89-.45,1.53-.24,2.11.24.67.79,1.14,1.28,1.54.26.22.48.39.68.54.28.22.67.51.71.63-.06.1-.65.45-1.09.7l-.35.21c-.2.12-.41.25-.62.38-.34.22-.7.44-1.06.64-.58.31-1.12.64-1.53.9l-.13.08Z"/>
        <path class="cls-1" d="M125.61,23.69c0-.31.01-.61,0-.91-.05-.94-.17-1.68-.36-2.29-.15-.33-.38-.66-.63-1-.11-.16-.22-.32-.33-.48-.11-.17-.22-.35-.33-.53-.2-.33-.41-.66-.64-.96-.37-.48-.77-.91-1.14-1.33-.62-.57-1.09-1.25-1.45-2.11-.19-.43-.39-.87-.7-1.19-.31-.32-.72-.7-1.2-.85-.56-.21-1.18-.22-1.97-.04-.13.03-.27.07-.4.11-.59.18-1.06.42-1.42.73-.5.43-.84,1.07-1.19,1.71l-.1.17c-.3.51-.58.98-.73,1.48-.2.67-.28,1.34-.32,1.85-.05.56,0,1.11.04,1.59l.02.3c.03.37.04.71.06,1.01.02.39.03.7.07.89.13.61.51,1.25.88,1.86.24.4.54.76.82,1.12.16.2.31.39.45.57.16.23.31.46.45.68.16.26.32.5.49.73.18.23.38.44.57.64.2.2.39.4.56.62.18.24.34.49.5.75.14.23.28.45.45.67l.34.45c.22.29.46.59.69.92.17.25.91.45,1.4.58.34.09.63.17.82.26.42.2,1.69,2.54,1.64,3.2-.11.68-.11,2.3-.6,2.65-.28.2-.62.36-.98.47-.23.07-.47.12-.69.14-.21.03-.43,0-.62-.02-.16-.02-.33-.04-.41-.02-.04.04-.07.11-.1.19-.05.13-.12.28-.25.41-.4.39-.87.71-1.4,1.05-.27.18-.54.37-.81.55l-.6.41c-.36.22-.66.45-.94.65-.25.18-.49.36-.73.51-.59.37-1.19.65-1.84.96l-.42.18c-.38.17-.96.42-1.06.45,0,0,0,0,0,0,0,0,.04.05.21.12.46.18.84.28,1.26.35.71.11,1.46.2,2.18.1.52-.07.99-.17,1.4-.3.26-.08.5-.17.72-.27.34-.17.48-.27.62-.37.16-.12.35-.26.83-.5l1.52-.77c.24-.12.48-.25.72-.38.26-.14.52-.28.79-.42.27-.14.55-.26.83-.39.25-.11.49-.22.72-.33.27-.14.53-.27.78-.4.26-.14.51-.27.74-.38.3-.13.64-.24.99-.35.36-.11.73-.22,1.07-.38.72-.33,1.14-.72,1.36-1.29.23-.61.21-1.19-.08-1.64-.3-.48-1.16-1.83-1.8-1.81-.18-.01-.37-.04-.6-.08,0,0-.02,0-.03,0,.02-.03.05-.04.06-.07.37-.69.5-2.43.94-3.05l.29-.4c.29-.64.29-1.4-.03-2.38-.1-.31-.28-.56-.48-.82-.11-.15-.21-.29-.3-.44-.3-.5-.46-1.01-.53-1.58-.08-.52-.07-1.03-.06-1.53Z"/>
      </g>
      <path class="cls-1" d="M11.08,49.87c-.19-.06-.6-.19-.86-.09-.83.53-1.59,1.47-2.3,2.19-1.48,1.55-2.73,2.93-3.95,4.81-1.25,1.8-2.75,3.93-3.71,5.77-.27.61-.42.78.02,1.07,2.08.6,4.27-1.06,7.05-.76,1.48.15,2.93-.15,4.42-.43,1.76-.52,3.42-.33,4.55-1.4.51-1.19-1.07-2.14-1.66-3.14-1.29-2.06-2.41-5.54-3.46-7.93l-.1-.07ZM81.87,22.29c-1.38-.06-2.84-.15-4.23-.12-1.56.04-3.03.12-4.22.21,1.09-.67,2.13-1.41,3.15-2.18,1.02-.77,2.13-1.46,3.04-2.36.9-.89,1.61-1.94,2.36-2.99-.87.75-1.74,1.36-2.62,1.98-.92.65-1.86,1.21-2.8,1.77-.95.57-1.84,1.24-2.81,1.77-1.26.75-3.44,1.34-5.12,1.97-1.13.42-2.17,1.14-3.34,1.42-1.17.28-2.39.42-3.6.52-1.36.11-2.73.04-4.08-.07-1.35-.11-2.69-.36-4.01-.69-1.3-.33-2.62-.69-3.88-1.24-.85-.37-1.62-.8-2.41-1.26-.52-.38-1-.76-1.44-1.12-1.11-.89-1.96-1.74-2.55-2.53-1.31-1.75-1.55-3.12-1.55-3.24,0-.17.95-.72,2.89-1.31.84-.26,1.86-.46,3.13-.61,0,0,1.61-.39,3.73-.36,1.17.02,2.48.42,3.76.44,1.38.03,2.71.06,3.76.09,1.05.03,2.35-.2,3.62-.49,1.2-.27,2.34-.93,3.4-1.29,1.94-.64,1.83-.25,3.52-.91.9-.35,1.29-.51,1.73-.7.03.21.05.42.06.63,0,.39.02.79-.03,1.18-.06.39-.16.74-.28,1.11.3-.14.54-.31.79-.54.25-.23.47-.49.63-.78.17-.3.28-.69.38-1.1.09-.36.17-.75.21-1.15,0-.03,0-.07.01-.1.18-.08.36-.16.53-.24.11.27.22.53.26.79.07.38.1.76.11,1.12,0,.37-.12.74-.18,1.11-.05.36-.06.74-.15,1.11-.09.35-.24.69-.37,1.06.39-.17.74-.43,1.06-.72.32-.29.65-.58.87-.95.16-.27.24-.64.37-1.02.1-.32.23-.66.31-1.03.07-.35.14-.7.19-1.07.05-.36.02-.73.04-1.09.02-.35.12-.7.12-1.02.34-.44.39-.58.43-1.39.07-1.52.2-2.02-.47-3.01-1-1.67-3.98-1.35-4.49-1.29-.5.06-2.28-.27-3.69-.31-1-.03-1.16.68-2.77.86-.67.08-1.6-.24-2.92-.37-.97-.09-1.99-.03-2.98,0-1.04.03-2.05.14-2.96.25-2.24.24-1.92.4-3.84.8-1.83.38-1.69.14-3.71.52-1.19.22-2.49.49-3.68.71-1.9.35-3.48.39-3.69.38-2.44-.07-2.44-.04-4.88.07-1.01.4-1.98.72-2.82,1.2-.55.31-.99.73-1.41,1.15-.87.4-1.67.96-2.54,1.47-.94.55-1.8,1.22-2.71,1.93-.87.67-1.75,1.33-2.57,2.12-.79.76-1.82,1.34-2.55,2.2-.72.84-1.14,1.93-1.8,2.85-.64.9-1.32,1.78-1.9,2.76-.57.95-1.07,1.95-1.56,2.96-.49,1-1.27,1.88-1.68,2.93-.41,1.04-.38,2.24-.7,3.31-.33,1.07-.55,2.15-.79,3.24-.24,1.09-.61,2.15-.75,3.26-.14,1.11-.07,2.23-.1,3.35-.03,1.12,0,2.22.07,3.33.08,1.11.12,2.22.32,3.32.19,1.1.29,2.22.61,3.29.31,1.07.98,2,1.42,3.04.43,1.02.56,2.19,1.12,3.18.55.96,1.41,1.72,2.09,2.64.65.88.99,2.07,1.77,2.91.24.21.69-.12.99-.18,1.05-.34,2.2-.11,3.25-.26,1.08-.14,2.13-.71,3.21-.68,1.08.03,2.09.72,3.16.9,1.06.18,2.09.37,3.14.65,1.04.28,2.18.23,3.21.58,1.02.35,2,.83,3,1.22,1.02.4,2.1.62,3.09,1.01,1.02.41,1.83,1.32,2.82,1.7,1.04.4,2.21.37,3.2.68,1.08.34,2.12.58,3.13.75,1.12.19,2.15.11,3.18.04,1.09-.08,2.18.02,3.16-.47.36-.16.41-1.04.04-1.19-1.45-.61-1.26-.1-3.02-.96-.81-.4-1.58-1.23-2.63-1.79-.86-.46-2-.58-2.98-1.14-.87-.5-1.63-1.3-2.56-1.87-.87-.54-1.68-1.23-2.57-1.83-.86-.58-1.99-.82-2.84-1.46-.84-.63-1.63-1.35-2.44-2.03-.81-.68-1.52-1.49-2.26-2.21-1-.25-1.97-.77-3.01-1.05-1.04-.28-2.05-.56-3.01-.91-1.06-.39-2.23-.43-3.05-.96-.97-.63-1.64-1.72-2.01-2.64,1.54-.18,1.08.92,2.71,1.67.84.38,1.78.89,2.9,1.09.96.17,1.75.03,2.85-.11-.63-.8-1.19-1.5-1.73-2.52-.5-.94-.65-2.11-1.04-3.15-.39-1.03-.79-2.07-1.02-3.12-.25-1.11-.72-2.21-.75-3.25-.03-1.18.23-2.35.54-3.32.18-.56.76-1.04,1.31-1.25.81-.3,1.69-.3,2.13-.49.88-.38.63-1.8-.31-2.06-.78-.22-1.62-.78-2.57-1.38-.73-.47-1.48-1.06-2.19-1.87-.58-.67-1.25-1.39-1.73-2.35-.62-1.29-.82-2.45-.92-3.45-.06-.57-.04-1.09.03-1.59.07.81.22,1.53.53,2.12.51,1.01,1.58,1.53,2.64,2.21.87.56,1.78,1.28,2.96,1.77.98.41,2.05.83,3.22,1.28,1.01.39,2.18.55,3.31,1.03.88.22,1.66.67,2.45.85.99.22,1.88.34,2.56.45.28.05.51.24.76.38.45.25,1.03.52,1.67.88.77.43,1.76.81,2.74,1.39.83.5,1.57,1.28,2.49,1.81.87.5,1.82.93,2.74,1.4.92.47,1.82,1.01,2.75,1.4.98.41,2.06.46,3,.71,1.06.28,2.05.54,2.99.51,3.83-.27,2.72.46,4.73-.92,1.71-1.17,2.64-1.72,1.98-3.27-.79.97-2.62.64-3.28.35-.93-.39-1.89-.75-2.78-1.3-.86-.53-1.78-1.01-2.59-1.68-.78-.64-1.49-1.4-2.23-2.14-.35-.31-1.89-1.04-4.12-1.81-.59-.2-1.35-.7-2.2-1.27,1.08.47,2.18.81,3.31,1.07,1.27.29,2.52.65,3.81.69,1.29.04,2.61.05,3.9-.14,1.27-.19,2.53-.56,3.78-.95,1.03-.23,2.03-.59,3.07-.8,1.04-.21,2.07-.46,3.11-.65,1.04-.18,2.12-.16,3.17-.32,1.58-.21,3.13-.56,4.56-.72,1.79-.19,3.45-.22,4.64-.4-1.16-.24-2.69-.29-4.27-.36ZM72.67,3.09c.27.08.51.22.7.49.14.2.26.46.32.81.01.35-.06.14-.69-.04-.36-.1-.43-.38-.62-.64-.14-.19-.33-.39-.75-.48.24-.08.79-.21,1.03-.14ZM54.52,4.11c.31.04.67.13,1.07.18.34.04.71.04,1.09.07.35.03.72.02,1.09.02.36,0,.72-.06,1.08-.09.37-.03.72-.08,1.07-.16.36-.08.72-.15,1.04-.3.53-.25.84-.29.98-.22.2.1.09.47-.26.9-.19.23-.46.46-.75.71-.25.21-.58.36-.88.54-.3.18-.59.37-.9.48-.34.12-.67.22-1,.23-.26,0-.62-.12-1.03-.27-.31-.11-.68-.19-1.02-.35-.32-.15-.63-.35-.94-.52-.34-.19-.65-.4-.91-.58-.5-.33-.81-.6-.77-.7.03-.09.43-.02,1.05.06ZM32.97,38.19c1.1-.07,2.25.35,3.43.49,1.11.13,2.32-.09,3.46.2s2.19.72,3.28,1.13,2.12.9,3.15,1.42c1.02.51,1.93,1.26,2.9,1.87.97.62,1.79,1.43,2.69,2.13s1.93,1.29,2.73,2.08c.83.82,1.39,1.85,2.07,2.73s1.51,1.76,2.03,2.75c.55,1.04.88,2.12,1.18,3.2.31,1.12.44,2.21.42,3.35-.01,1.13.08,2.49-.29,3.61-.96-.61-2.1-1.28-3.06-1.87s-1.98-1.12-2.93-1.7c-.97-.6-1.93-1.2-2.87-1.8-.96-.61-1.82-1.36-2.75-1.99s-1.76-1.44-2.66-2.1c-.92-.67-1.94-1.2-2.8-1.91-.88-.72-1.62-1.59-2.43-2.36s-1.63-1.56-2.37-2.41-1.49-1.7-2.13-2.63-1.36-1.82-1.89-2.82-.74-2.12-1.15-3.2c-.03-.1-.05-.2-.05-.2Z"/>
      <g>
        <path class="cls-1" d="M53.68,125.87c-1.75,1.76-3.69,3.33-6.19,3.97-5.13,1.31-9.71.38-13.54-3.44-.37-.37-.73-.75-1.12-1.1-1.92-1.76-4.25-1.77-6.05.14-1.99,2.11-4.39,3.63-7.09,4.35-6.19,1.64-12.51.63-16.84-4.83-1.69-2.13-2.59-4.64-2.79-7.41-.2-2.78.16-5.49,1.05-8.09.83-2.45,2.38-4.49,4.37-6.16.85-.71,1.76-1.35,2.7-1.93,1.85-1.13,2.57-3.23,1.66-5.24-.4-.89-.88-1.75-1.32-2.63-1.48-2.94-2.22-6.07-1.5-9.31.97-4.34,3.13-7.8,7.64-9.4,2.82-1,5.67-1.51,8.37-1.24,3.03-.19,5.77-.14,8.38.93.24.1.49.17.74.27,2.93,1.22,3.77,3.46,2.96,6.58-.26,1-.77,1.94-1.25,2.87-.5.97-1.26,1.74-2.46,1.62-1.14-.11-1.87-.86-2.25-1.92-.29-.8-.5-1.63-.84-2.4-1-2.27-2.66-3.86-5.07-4.53-2.49-.69-5.06,1.25-5.15,3.86-.05,1.43.39,2.74,1.15,3.89,1.19,1.8,2.45,3.55,3.78,5.24,4.76,6.06,9.56,12.09,14.37,18.1,2.49,3.11,5.02,6.19,7.6,9.22,1.62,1.91,3.68,3.08,6.25,3.28.69.05,1.46.19,2.03.56,1.65,1.07,1.89,3.28.42,4.76ZM26.01,118.47c0-1.2-.43-2.14-1.14-3.03-1.98-2.5-3.95-5.02-5.95-7.51-.81-1.02-1.66-2.01-2.51-2.99-.89-1.03-2.07-1.06-3.24-.72-1.15.34-1.53,1.35-1.67,2.43-.09.71-.1,1.43-.14,2.15.01,0,.02,0,.04,0,0,.39-.02.78,0,1.17.27,4.07,1.89,7.41,5.29,9.78,2.09,1.46,4.42,1.92,6.89,1.52,1.6-.26,2.42-1.19,2.42-2.8Z"/>
        <path class="cls-1" d="M96.46,116.21c-.14.68-.24,1.38-.5,2.01-1.99,4.72-5.21,8.3-9.77,10.68-2.9,1.52-6.06,1.86-9.25,1.97-5.86.19-11.02-1.52-15.42-5.41-4.9-4.34-7.32-9.96-8.33-16.3-.84-5.3-.53-10.5.91-15.67,1.18-4.25,3.21-7.94,6.14-11.26.64-.73,1.38-1.36,2.14-1.95.79-.62,1.55-1.26,2.38-1.82,5.45-3.72,8.21-4.52,14.27-4.78,11.63.86,17.12,4.74,17.12,9.17.07,3.31.11,13.13-5.41,13.13-3.56,0-6.54-8.04-10.53-12.39-3.02-4.55-8.4-3.07-10.73,2.26-.15.34-.37.76-.59,1.2.05.05-.69,1.62-.96,2.43-2.42,7.1-1.51,13.87,2.56,20.11,3.22,4.93,8.1,6.97,13.83,6.56,2.07-.15,4.07-1.31,6.08-2.08.63-.24,1.16-.77,1.78-1.06,1.08-.51,2.2-.56,3.19.22.96.75,1.37,1.76,1.11,2.99Z"/>
        <path class="cls-1" d="M126.68,130.94c-2.75,0-5.06-.07-7.57-.65-8.76-2.02-14.64-7.51-18.05-15.7-2.94-7.08-2.93-14.41-.92-21.65,2.27-8.16,7.62-13.89,15.35-17.23,4.53-1.95,9.39-2.32,14.28-1.75,3.28.38,6.49,1.09,9.41,2.75,6.45,3.66,10.98,8.86,13,16.1,1.42,5.08,1.71,10.22,1.01,15.43-.14,1.02-.45,2.02-.68,3.03-.26,1.18-.52,2.36-.77,3.54-.07.33-.02.76-.22.99-2.3,2.68-3.8,5.95-6.51,8.35-2.5,2.21-5.2,3.97-8.3,5.2-3.2,1.27-6.6,1.59-10.06,1.59ZM135.48,102.51c-.42-4.17-.71-8.57-1.36-12.92-.41-2.73-1.35-5.35-3.47-7.39-2.59-2.49-6.17-2.51-8.8-.03-2.14,2.02-3.13,4.64-3.48,7.38-.59,4.62-.84,9.29-1.1,13.94-.09,1.63.33,3.27.32,4.91,0,2.97.51,5.86,1.21,8.72.59,2.37,1.53,4.58,3.51,6.22,2.25,1.85,5.65,1.85,7.88-.01,2.33-1.95,3.48-4.6,3.92-7.42.67-4.35.92-8.76,1.37-13.39Z"/>
        <path class="cls-1" d="M163.59,130.83c-4.54.6-9.31-4.19-8.97-9.62.29-4.57,3.9-8.37,8.6-8.46,6.32-.12,9.41,4.37,9.64,8.83.28,5.54-4.48,9.65-9.27,9.26Z"/>
      </g>
    </g>
  </g>
</svg>